<svg width="130" height="25" viewBox="0 0 130 25" fill="none" xmlns="http://www.w3.org/2000/svg">
<g clip-path="url(#clip0_478_994)">
<path d="M12.8672 0.318359C19.4948 0.318359 24.8672 5.69076 24.8672 12.3184V20.7184C24.8672 21.6731 24.4879 22.5888 23.8128 23.2639C23.1376 23.9391 22.222 24.3184 21.2672 24.3184H13.4672V19.054C13.4672 17.8528 13.5404 16.6084 14.1704 15.586C14.6214 14.8533 15.2248 14.2261 15.9395 13.7471C16.6542 13.2681 17.4636 12.9484 18.3128 12.8098L18.5426 12.7726C18.6373 12.7402 18.7196 12.679 18.7778 12.5975C18.836 12.5161 18.8673 12.4185 18.8673 12.3184C18.8673 12.2182 18.836 12.1206 18.7778 12.0392C18.7196 11.9577 18.6373 11.8965 18.5426 11.8642L18.3128 11.827C17.0721 11.6243 15.9264 11.037 15.0375 10.1481C14.1485 9.25915 13.5613 8.11346 13.3586 6.87276L13.3214 6.64296C13.289 6.54822 13.2278 6.46598 13.1464 6.40775C13.0649 6.34952 12.9673 6.31821 12.8672 6.31821C12.7671 6.31821 12.6695 6.34952 12.588 6.40775C12.5066 6.46598 12.4454 6.54822 12.413 6.64296L12.3758 6.87276C12.2372 7.72192 11.9175 8.53133 11.4385 9.24607C10.9595 9.9608 10.3323 10.5641 9.59959 11.0152C8.57719 11.6452 7.33279 11.7184 6.13159 11.7184H0.881592C1.19539 5.36976 6.44119 0.318359 12.8672 0.318359Z" fill="white"/>
<path d="M0.867188 12.9184H6.13159C7.33279 12.9184 8.57719 12.9916 9.59959 13.6216C10.3988 14.114 11.0715 14.7868 11.564 15.586C12.194 16.6084 12.2672 17.8528 12.2672 19.054V24.3184H4.46719C3.51241 24.3184 2.59673 23.9391 1.9216 23.2639C1.24647 22.5888 0.867188 21.6731 0.867188 20.7184L0.867188 12.9184ZM24.8672 1.51836C24.8672 1.83662 24.7408 2.14184 24.5157 2.36689C24.2907 2.59193 23.9854 2.71836 23.6672 2.71836C23.3489 2.71836 23.0437 2.59193 22.8187 2.36689C22.5936 2.14184 22.4672 1.83662 22.4672 1.51836C22.4672 1.2001 22.5936 0.894875 22.8187 0.669831C23.0437 0.444788 23.3489 0.318359 23.6672 0.318359C23.9854 0.318359 24.2907 0.444788 24.5157 0.669831C24.7408 0.894875 24.8672 1.2001 24.8672 1.51836Z" fill="white"/>
</g>
<path d="M38.9965 22.2333C35.7973 22.2333 33.8672 20.5676 33.8672 17.6328C33.8672 14.6451 35.9559 13.0852 39.631 13.0852H43.2004V12.7415C43.2004 10.8114 42.1692 9.80669 40.2391 9.80669C38.5999 9.80669 36.6698 9.88601 35.5064 9.96533V7.7444C36.6433 7.63864 38.124 7.58576 39.3931 7.58576C43.7291 7.58576 45.6328 8.98706 45.6328 12.9266V21.8631H43.6234V19.0605C43.0153 21.1493 41.4553 22.2333 38.9965 22.2333ZM39.5253 20.2239C41.2967 20.2239 43.0946 19.3778 43.2004 16.6281V14.9888H39.5253C37.4894 14.9888 36.3525 16.0729 36.3525 17.6328C36.3525 19.1927 37.4894 20.2239 39.5253 20.2239Z" fill="white"/>
<path d="M51.7719 21.8631H49.2337V7.7444H51.1903V11.208C51.4811 8.77554 52.8295 7.58576 55.2091 7.58576H57.6944V9.85957H54.5217C52.6973 9.85957 51.7719 10.785 51.7719 12.6093V21.8631Z" fill="white"/>
<path d="M69.2679 22.0218H67.0999C63.9536 22.0218 61.9706 20.832 61.9706 17.0511V9.64805H59.5381V7.7444H61.9706V3.46119H64.403V7.7444H69.2679V9.64805H64.403V17.3684C64.403 18.8755 65.2755 19.748 66.7826 19.748H69.2679V22.0218Z" fill="white"/>
<path d="M74.2592 5.4706C73.1223 5.4706 72.5935 4.80961 72.5935 3.88423C72.5935 2.95884 73.1223 2.29785 74.2592 2.29785C75.3961 2.29785 75.9249 2.95884 75.9249 3.88423C75.9249 4.80961 75.3961 5.4706 74.2592 5.4706ZM76.0835 21.8631H73.5453V9.75381H71.3773V7.7444H76.0835V21.8631Z" fill="white"/>
<path d="M83.7938 21.8631H81.3613V9.80669H79.4048V7.90304H81.3613V7.03053C81.3613 3.88423 83.0535 2.45649 86.2526 2.45649H87.9977V4.57165H85.8296C84.5076 4.57165 83.7938 5.3384 83.7938 6.6075V7.90304H88.2621V9.80669H83.7938V21.8631Z" fill="white"/>
<path d="M94.8707 22.2333C91.6715 22.2333 89.7414 20.5676 89.7414 17.6328C89.7414 14.6451 91.8302 13.0852 95.5053 13.0852H99.0746V12.7415C99.0746 10.8114 98.0434 9.80669 96.1134 9.80669C94.4741 9.80669 92.544 9.88601 91.3807 9.96533V7.7444C92.5176 7.63864 93.9982 7.58576 95.2673 7.58576C99.6034 7.58576 101.507 8.98706 101.507 12.9266V21.8631H99.4976V19.0605C98.8895 21.1493 97.3296 22.2333 94.8707 22.2333ZM95.3995 20.2239C97.1709 20.2239 98.9688 19.3778 99.0746 16.6281V14.9888H95.3995C93.3637 14.9888 92.2268 16.0729 92.2268 17.6328C92.2268 19.1927 93.3637 20.2239 95.3995 20.2239Z" fill="white"/>
<path d="M112.22 22.339C107.382 22.339 105.108 18.5317 105.108 15.0417V14.5658C105.108 10.9965 107.435 7.26849 112.167 7.26849C115.71 7.26849 118.354 9.35722 118.592 12.6357H116.16C115.895 10.8643 114.494 9.54229 112.167 9.54229C109.127 9.54229 107.646 11.7897 107.646 14.8038C107.646 17.7386 109.127 20.0652 112.22 20.0652C114.573 20.0652 116.107 18.6904 116.318 16.8925H118.751C118.566 20.2239 115.79 22.339 112.22 22.339Z" fill="white"/>
<path d="M129.867 22.0218H127.699C124.553 22.0218 122.57 20.832 122.57 17.0511V9.64805H120.137V7.7444H122.57V3.46119H125.002V7.7444H129.867V9.64805H125.002V17.3684C125.002 18.8755 125.875 19.748 127.382 19.748H129.867V22.0218Z" fill="white"/>
<defs>
<clipPath id="clip0_478_994">
<rect width="24" height="24" fill="white" transform="translate(0.867188 0.318359)"/>
</clipPath>
</defs>
</svg>
