<svg width="24" height="25" viewBox="0 0 24 25" fill="none" xmlns="http://www.w3.org/2000/svg">
<path d="M10.4 2.65601C5.99122 2.65601 2.40002 6.2472 2.40002 10.656C2.40002 15.0648 5.99122 18.656 10.4 18.656C12.3172 18.656 14.0779 17.9752 15.4578 16.8451L20.2344 21.6216C20.3081 21.6984 20.3964 21.7597 20.4941 21.8019C20.5918 21.8442 20.697 21.8665 20.8034 21.8676C20.9098 21.8686 21.0154 21.8485 21.114 21.8082C21.2125 21.768 21.302 21.7085 21.3773 21.6333C21.4525 21.558 21.512 21.4685 21.5523 21.3699C21.5925 21.2714 21.6127 21.1658 21.6116 21.0594C21.6105 20.9529 21.5882 20.8478 21.546 20.7501C21.5037 20.6524 21.4424 20.5641 21.3656 20.4904L16.5891 15.7138C17.7192 14.3339 18.4 12.5732 18.4 10.656C18.4 6.2472 14.8088 2.65601 10.4 2.65601ZM10.4 4.25601C13.9441 4.25601 16.8 7.11191 16.8 10.656C16.8 14.2001 13.9441 17.056 10.4 17.056C6.85593 17.056 4.00002 14.2001 4.00002 10.656C4.00002 7.11191 6.85593 4.25601 10.4 4.25601Z" fill="black"/>
</svg>
