<svg width="48" height="49" viewBox="0 0 48 49" fill="none" xmlns="http://www.w3.org/2000/svg">
<path fill-rule="evenodd" clip-rule="evenodd" d="M30.6668 14.9284C28.6934 13.6098 26.3734 12.906 24 12.906V0.906006C28.7467 0.906006 33.3869 2.31358 37.3337 4.95074C41.2805 7.58788 44.3566 11.3362 46.1731 15.7216C47.9896 20.107 48.4649 24.9327 47.5389 29.5882C46.6128 34.2437 44.3271 38.5201 40.9705 41.8765C37.6141 45.2331 33.3377 47.5188 28.6822 48.4449C24.0266 49.3709 19.201 48.8956 14.8156 47.0791C10.4302 45.2626 6.68188 42.1865 4.04473 38.2397C1.40758 34.2929 0 29.6527 0 24.906H12C12 27.2794 12.7038 29.5995 14.0224 31.5729C15.3409 33.5463 17.2151 35.0843 19.4078 35.9926C21.6005 36.9009 24.0133 37.1385 26.3411 36.6754C28.6688 36.2124 30.807 35.0695 32.4853 33.3913C34.1635 31.713 35.3064 29.5749 35.7694 27.2471C36.2324 24.9193 35.9949 22.5065 35.0866 20.3139C34.1783 18.1211 32.6402 16.2469 30.6668 14.9284Z" fill="#146EF5"/>
<path fill-rule="evenodd" clip-rule="evenodd" d="M12 0.906011C12 2.48187 11.6896 4.04231 11.0866 5.49821C10.4835 6.95412 9.59959 8.27699 8.48528 9.3913C7.37098 10.5056 6.04812 11.3895 4.5922 11.9926C3.13629 12.5956 1.57586 12.906 5.24532e-07 12.906L0 24.906C3.15172 24.906 6.27259 24.2853 9.18441 23.0791C12.0962 21.873 14.742 20.1052 16.9705 17.8765C19.1992 15.648 20.967 13.0023 22.1731 10.0904C23.3792 7.17859 24 4.05773 24 0.906006L12 0.906011Z" fill="#146EF5"/>
</svg>
