<svg width="48" height="49" viewBox="0 0 48 49" fill="none" xmlns="http://www.w3.org/2000/svg">
<path fill-rule="evenodd" clip-rule="evenodd" d="M16.4575 0.906006C13.7498 0.906006 11.1532 1.98161 9.23857 3.8962L0 13.1347V17.3635C0 20.3512 1.28333 23.039 3.32881 24.906C1.28333 26.773 0 29.4608 0 32.4485V36.6773L9.23857 45.9158C11.1532 47.8304 13.7498 48.906 16.4575 48.906C19.4452 48.906 22.133 47.6227 24 45.5772C25.867 47.6227 28.5548 48.906 31.5425 48.906C34.2502 48.906 36.8468 47.8304 38.7614 45.9158L48 36.6773V32.4485C48 29.4608 46.7167 26.773 44.6712 24.906C46.7167 23.039 48 20.3512 48 17.3635V13.1347L38.7614 3.8962C36.8468 1.98161 34.2502 0.906006 31.5425 0.906006C28.5548 0.906006 25.867 2.18933 24 4.23481C22.133 2.18933 19.4452 0.906006 16.4575 0.906006ZM30.9106 24.906C30.7955 24.801 30.6826 24.6931 30.5719 24.5825L24 18.0106L17.4281 24.5825C17.3174 24.6931 17.2045 24.801 17.0894 24.906C17.2045 25.011 17.3174 25.1189 17.4281 25.2295L24 31.8014L30.5719 25.2295C30.6826 25.1189 30.7955 25.011 30.9106 24.906ZM26.6666 36.6773V38.6969C26.6666 41.3897 28.8497 43.5727 31.5425 43.5727C32.8356 43.5727 34.0758 43.059 34.9902 42.1446L42.6667 34.4681V32.4485C42.6667 29.7557 40.4837 27.5726 37.7909 27.5726C36.4978 27.5726 35.2576 28.0864 34.3432 29.0008L26.6666 36.6773ZM21.3334 36.6773L13.6568 29.0008C12.7424 28.0864 11.5023 27.5726 10.2091 27.5726C7.51631 27.5726 5.33333 29.7557 5.33333 32.4485V34.4681L13.0098 42.1446C13.9242 43.059 15.1644 43.5727 16.4575 43.5727C19.1503 43.5727 21.3334 41.3897 21.3334 38.6969V36.6773ZM21.3334 11.1151V13.1347L13.6568 20.8112C12.7424 21.7256 11.5023 22.2394 10.2091 22.2394C7.51631 22.2394 5.33333 20.0563 5.33333 17.3635V15.3439L13.0098 7.66743C13.9242 6.75304 15.1644 6.23934 16.4575 6.23934C19.1503 6.23934 21.3334 8.42231 21.3334 11.1151ZM34.3432 20.8112L26.6666 13.1347V11.1151C26.6666 8.42231 28.8497 6.23934 31.5425 6.23934C32.8356 6.23934 34.0758 6.75304 34.9902 7.66743L42.6667 15.3439V17.3635C42.6667 20.0563 40.4837 22.2394 37.7909 22.2394C36.4978 22.2394 35.2576 21.7256 34.3432 20.8112Z" fill="#003087"/>
</svg>
