<svg width="18" height="19" viewBox="0 0 18 19" fill="none" xmlns="http://www.w3.org/2000/svg">
<path d="M16.116 8.89875C15.9746 7.14187 14.4101 5.25 12.2812 5.25C10.8885 5.25 10.1831 5.55488 9.66788 5.77725C9.6195 5.79825 9.57825 5.81475 9.53512 5.83238C9.48525 5.19075 9.36713 4.65525 9.20288 4.2015C9.52725 4.37513 9.90225 4.5 10.3125 4.5C11.5931 4.5 12.5351 3.28725 12.6383 3.14888C12.7875 2.94938 12.7875 2.67562 12.6383 2.47613C12.5351 2.33775 11.5931 1.125 10.3125 1.125C9.03188 1.125 8.08988 2.33775 7.98675 2.47613C7.98 2.48475 7.97813 2.49562 7.97213 2.50462C7.25925 2.001 6.441 1.875 5.8125 1.875C5.502 1.875 5.25 2.12663 5.25 2.4375C5.25 2.74837 5.502 3 5.8125 3C6.41175 3 8.13637 3.00675 8.4 5.80575C8.37637 5.796 8.3565 5.78813 8.33175 5.77725C7.81687 5.55488 7.1115 5.25 5.71875 5.25C3.73725 5.25 1.941 6.99675 1.875 9.00638L1.87725 9.3825C1.93275 13.5139 4.41412 16.875 7.40925 16.875H7.50863C8.11463 16.875 8.65237 16.5761 9.00037 16.3211C9.348 16.5761 9.88538 16.875 10.4918 16.875H10.5911C13.5859 16.875 16.0676 13.5139 16.1231 9.37575L16.1246 9.09637C16.1246 9.08775 16.125 9.0795 16.125 9.07087V8.98837C16.1242 8.958 16.1213 8.928 16.116 8.89875Z" fill="black"/>
</svg>
