<svg width="161" height="32" viewBox="0 0 161 32" fill="none" xmlns="http://www.w3.org/2000/svg">
<path d="M32.7786 17.1557H27.0629C22.0702 17.1557 18.0229 21.2031 18.0229 26.1957V31.9114C25.9028 31.3271 32.1943 25.0356 32.7786 17.1557Z" fill="white"/>
<path d="M15.6229 31.9114V26.1957C15.6229 21.2031 11.5755 17.1557 6.58286 17.1557H0.867188C1.45145 25.0356 7.74294 31.3271 15.6229 31.9114Z" fill="white"/>
<path d="M32.7786 14.7557C32.1943 6.87576 25.9028 0.584267 18.0229 0V5.71568C18.0229 10.7083 22.0702 14.7557 27.0629 14.7557H32.7786Z" fill="white"/>
<path d="M15.6229 0C7.74294 0.584267 1.45145 6.87576 0.867188 14.7557H6.58286C11.5755 14.7557 15.6229 10.7083 15.6229 5.71568V0Z" fill="white"/>
<path d="M11.6891 15.9557C13.9071 14.8475 15.7147 13.0399 16.8228 10.8219C17.9311 13.0399 19.7386 14.8475 21.9567 15.9557C19.7386 17.0639 17.9311 18.8715 16.8228 21.0895C15.7147 18.8715 13.9071 17.0639 11.6891 15.9557Z" fill="white"/>
<path d="M57.5504 26.9559H44.7184V5.16386H48.4304V24.3319L47.7904 23.4359H57.5504V26.9559Z" fill="white"/>
<path d="M64.9737 27.3079C63.8003 27.3079 62.8617 27.1265 62.1577 26.7639C61.475 26.4012 60.963 25.9105 60.6217 25.2919C60.2803 24.6732 60.0457 23.9692 59.9177 23.1799C59.811 22.3905 59.7577 21.5692 59.7577 20.7159V11.3399H63.4697V21.0679C63.4697 22.0919 63.6937 22.7852 64.1417 23.1479C64.611 23.4892 65.155 23.6599 65.7737 23.6599C66.3923 23.6599 67.0003 23.5425 67.5977 23.3079C68.2163 23.0732 68.7817 22.7425 69.2937 22.3159C69.827 21.8892 70.243 21.4199 70.5417 20.9079L70.8297 22.8919H70.0297V11.3399H73.7417V26.9559H70.9577L70.1897 24.0759H71.2457C70.7123 24.7159 70.1043 25.2812 69.4217 25.7719C68.739 26.2625 68.0243 26.6465 67.2777 26.9239C66.531 27.1799 65.763 27.3079 64.9737 27.3079Z" fill="white"/>
<path d="M84.0417 27.3079C82.4417 27.3079 81.0443 26.9559 79.8497 26.2519C78.6763 25.5479 77.759 24.5879 77.0977 23.3719C76.4577 22.1559 76.1377 20.7479 76.1377 19.1479C76.1377 17.5479 76.4577 16.1399 77.0977 14.9239C77.759 13.6865 78.6763 12.7265 79.8497 12.0439C81.0443 11.3399 82.4417 10.9879 84.0417 10.9879C85.6417 10.9879 87.0603 11.4039 88.2977 12.2359C89.5563 13.0679 90.463 14.1772 91.0177 15.5639L87.5617 17.0679C87.2417 16.2572 86.7723 15.6385 86.1537 15.2119C85.535 14.7852 84.8097 14.5719 83.9777 14.5719C82.8257 14.5719 81.855 14.9772 81.0657 15.7879C80.2977 16.5772 79.9137 17.6972 79.9137 19.1479C79.9137 20.5772 80.2977 21.6972 81.0657 22.5079C81.855 23.3185 82.8257 23.7239 83.9777 23.7239C84.8097 23.7239 85.535 23.5105 86.1537 23.0839C86.7723 22.6572 87.2417 22.0385 87.5617 21.2279L91.0177 22.6999C90.4417 24.0865 89.5243 25.2065 88.2657 26.0599C87.0283 26.8919 85.6203 27.3079 84.0417 27.3079Z" fill="white"/>
<path d="M96.8662 26.9559H93.1542V11.3399H96.8662V26.9559ZM92.6742 6.47586C92.6742 5.79319 92.8768 5.23852 93.2822 4.81186C93.7088 4.36386 94.2848 4.13986 95.0102 4.13986C95.6928 4.13986 96.2475 4.36386 96.6742 4.81186C97.1008 5.23852 97.3142 5.79319 97.3142 6.47586C97.3142 7.15852 97.1008 7.71319 96.6742 8.13986C96.2475 8.56653 95.6928 8.77986 95.0102 8.77986C94.2848 8.77986 93.7088 8.56653 93.2822 8.13986C92.8768 7.71319 92.6742 7.15852 92.6742 6.47586Z" fill="white"/>
<path d="M106.698 27.3079C105.29 27.3079 104.042 26.9665 102.954 26.2839C101.866 25.5799 101.012 24.6199 100.394 23.4039C99.7963 22.1665 99.4977 20.7372 99.4977 19.1159C99.4977 17.4945 99.7963 16.0759 100.394 14.8599C101.012 13.6439 101.866 12.6945 102.954 12.0119C104.042 11.3292 105.3 10.9879 106.73 10.9879C108.116 10.9879 109.322 11.3185 110.346 11.9799C111.391 12.6199 112.202 13.5585 112.778 14.7959C113.354 16.0119 113.642 17.4519 113.642 19.1159C113.642 20.7585 113.354 22.1985 112.778 23.4359C112.202 24.6519 111.391 25.6012 110.346 26.2839C109.3 26.9665 108.084 27.3079 106.698 27.3079ZM107.338 23.9799C108.532 23.9799 109.492 23.5425 110.218 22.6679C110.964 21.7719 111.338 20.5985 111.338 19.1479C111.338 17.6972 110.964 16.5345 110.218 15.6599C109.492 14.7639 108.532 14.3159 107.338 14.3159C106.143 14.3159 105.162 14.7639 104.394 15.6599C103.647 16.5345 103.274 17.6865 103.274 19.1159C103.274 20.5665 103.647 21.7399 104.394 22.6359C105.162 23.5319 106.143 23.9799 107.338 23.9799ZM112.074 26.9559L111.178 23.5319H111.466V15.1799H111.178V5.16386H114.89V26.9559H112.074Z" fill="white"/>
<path d="M124.952 27.2759C123.416 27.2759 122.072 26.9452 120.92 26.2839C119.768 25.6012 118.861 24.6519 118.2 23.4359C117.56 22.2199 117.24 20.8012 117.24 19.1799C117.24 17.5372 117.56 16.1079 118.2 14.8919C118.861 13.6545 119.768 12.6945 120.92 12.0119C122.072 11.3292 123.416 10.9879 124.952 10.9879C126.509 10.9879 127.864 11.3399 129.016 12.0439C130.189 12.7265 131.096 13.6865 131.736 14.9239C132.376 16.1399 132.696 17.5479 132.696 19.1479C132.696 19.3399 132.685 19.5319 132.664 19.7239C132.664 19.9159 132.653 20.0865 132.632 20.2359H120.504V17.2599H129.88L129.112 18.9559C129.112 17.4839 128.771 16.2785 128.088 15.3399C127.405 14.4012 126.371 13.9319 124.984 13.9319C123.725 13.9319 122.723 14.3265 121.976 15.1159C121.251 15.8839 120.888 16.9079 120.888 18.1879V19.8839C120.888 21.2065 121.251 22.2625 121.976 23.0519C122.723 23.8199 123.747 24.2039 125.048 24.2039C126.221 24.2039 127.128 23.9585 127.768 23.4679C128.429 22.9772 128.995 22.3692 129.464 21.6439L132.12 23.2439C131.416 24.5665 130.477 25.5692 129.304 26.2519C128.131 26.9345 126.68 27.2759 124.952 27.2759Z" fill="white"/>
<path d="M144.313 10.9879C145.423 10.9879 146.297 11.1692 146.937 11.5319C147.577 11.8945 148.057 12.3959 148.377 13.0359C148.697 13.6545 148.9 14.3585 148.985 15.1479C149.092 15.9159 149.145 16.7159 149.145 17.5479V26.9559H145.433V17.2279C145.433 16.1825 145.209 15.4892 144.761 15.1479C144.335 14.7852 143.801 14.6039 143.161 14.6039C142.564 14.6039 141.945 14.7319 141.305 14.9879C140.687 15.2225 140.121 15.5532 139.609 15.9799C139.097 16.3852 138.681 16.8545 138.361 17.3879L138.073 15.3719H138.873V26.9559H135.161V11.3399H137.945L138.713 14.1879L137.625 14.2199C138.223 13.5585 138.873 12.9932 139.577 12.5239C140.281 12.0332 141.028 11.6599 141.817 11.4039C142.628 11.1265 143.46 10.9879 144.313 10.9879Z" fill="white"/>
<path d="M158.549 27.2439C157.055 27.2439 155.871 26.8385 154.997 26.0279C154.143 25.1959 153.717 23.8945 153.717 22.1239V11.3399L154.421 7.72386H157.429V21.8039C157.429 22.4439 157.589 22.9132 157.909 23.2119C158.229 23.5105 158.645 23.6599 159.157 23.6599C159.498 23.6599 159.807 23.6385 160.085 23.5959C160.362 23.5532 160.607 23.4999 160.821 23.4359V26.8919C160.501 26.9985 160.159 27.0839 159.797 27.1479C159.455 27.2119 159.039 27.2439 158.549 27.2439ZM151.317 14.7319V11.3399H160.821V14.7319H151.317Z" fill="white"/>
</svg>
