<svg width="71" height="49" viewBox="0 0 71 49" fill="none" xmlns="http://www.w3.org/2000/svg">
<path d="M47.0136 39.306C54.9619 39.306 61.4054 32.8589 61.4054 24.906C61.4054 16.9531 54.9619 10.506 47.0136 10.506C39.5539 10.506 33.4198 16.1845 32.6936 23.457C29.7533 22.1263 26.5766 21.3311 23.3236 21.1218C25.1372 9.66494 35.0531 0.906006 47.0136 0.906006C60.2609 0.906006 71 11.6512 71 24.906C71 37.6774 61.0299 48.1188 48.4526 48.8635V48.906H32.645V46.8114C32.645 44.0904 31.5235 41.4445 29.4679 39.4663C27.4066 37.4825 24.5751 36.3388 21.5878 36.3388C18.6005 36.3388 15.769 37.4825 13.7077 39.4663C11.6522 41.4445 10.5306 44.0904 10.5306 46.8114V48.906H0V46.7602C0 41.1505 2.32673 35.8147 6.39648 31.9138C10.336 28.1376 15.5968 25.9982 21.0734 25.872C21.2447 25.868 21.4162 25.866 21.5878 25.866C21.7207 25.866 21.8535 25.8672 21.9862 25.8696C27.5044 25.9681 32.8118 28.1108 36.7791 31.9138C38.9769 34.0204 40.6664 36.5454 41.7555 39.306H47.0136Z" fill="#DD2C00"/>
<path d="M25.9977 42.8154C27.1672 43.833 27.8243 45.2132 27.8243 46.6524V48.906H15.3513V46.6524C15.3513 45.2132 16.0084 43.833 17.1779 42.8154C18.3475 41.7977 19.9338 41.226 21.5878 41.226C23.2418 41.226 24.8281 41.7977 25.9977 42.8154Z" fill="#DD2C00"/>
<path d="M52.5085 22.5496C50.7743 22.5496 49.3685 21.143 49.3685 19.4078V18.6223C49.3685 17.321 48.3141 16.266 47.0134 16.266C45.7128 16.266 44.6584 17.3209 44.6584 18.6223V19.4078C44.6584 21.143 43.2526 22.5496 41.5184 22.5496H40.7333C39.4328 22.5496 38.3783 23.6046 38.3783 24.906C38.3783 26.2074 39.4328 27.2623 40.7333 27.2623H41.5184C43.2526 27.2623 44.6584 28.669 44.6584 30.4042V31.1897C44.6584 32.4911 45.7128 33.546 47.0134 33.546C48.3141 33.546 49.3685 32.4911 49.3685 31.1897V30.4042C49.3685 28.669 50.7743 27.2623 52.5085 27.2623H53.2936C54.5942 27.2623 55.6486 26.2074 55.6486 24.906C55.6486 23.6046 54.5942 22.5496 53.2936 22.5496H52.5085Z" fill="#DD2C00"/>
<path d="M13.4325 4.74605C13.4325 6.86679 15.1508 8.58599 17.2704 8.58599H18.2297C19.8194 8.58599 21.1081 9.87542 21.1081 11.466C21.1081 13.0566 19.8194 14.346 18.2297 14.346H17.2704C15.1508 14.346 13.4325 16.0652 13.4325 18.1859V19.146C13.4325 20.7366 12.1439 22.026 10.5542 22.026C8.96449 22.026 7.67579 20.7366 7.67579 19.146V18.186C7.67579 16.0652 5.95754 14.346 3.83796 14.346H2.87837C1.2887 14.346 0 13.0566 0 11.466C0 9.87542 1.2887 8.58599 2.87837 8.58599H3.83798C5.95754 8.58599 7.67579 6.86678 7.67579 4.74601V3.78601C7.67579 2.19543 8.96449 0.906006 10.5542 0.906006C12.1439 0.906006 13.4325 2.19543 13.4325 3.78601V4.74605Z" fill="#DD2C00"/>
</svg>
