<svg width="130" height="25" viewBox="0 0 130 25" fill="none" xmlns="http://www.w3.org/2000/svg">
<g clip-path="url(#clip0_478_805)">
<path d="M12.8672 0.5C19.4948 0.5 24.8672 5.8724 24.8672 12.5V20.9C24.8672 21.8548 24.4879 22.7705 23.8128 23.4456C23.1376 24.1207 22.222 24.5 21.2672 24.5H13.4672V19.2356C13.4672 18.0344 13.5404 16.79 14.1704 15.7676C14.6214 15.0349 15.2248 14.4078 15.9395 13.9288C16.6542 13.4498 17.4636 13.1301 18.3128 12.9914L18.5426 12.9542C18.6373 12.9218 18.7196 12.8606 18.7778 12.7792C18.836 12.6977 18.8673 12.6001 18.8673 12.5C18.8673 12.3999 18.836 12.3023 18.7778 12.2208C18.7196 12.1394 18.6373 12.0782 18.5426 12.0458L18.3128 12.0086C17.0721 11.8059 15.9264 11.2187 15.0375 10.3297C14.1485 9.44079 13.5613 8.2951 13.3586 7.0544L13.3214 6.8246C13.289 6.72986 13.2278 6.64762 13.1464 6.58939C13.0649 6.53116 12.9673 6.49985 12.8672 6.49985C12.7671 6.49985 12.6695 6.53116 12.588 6.58939C12.5066 6.64762 12.4454 6.72986 12.413 6.8246L12.3758 7.0544C12.2372 7.90356 11.9175 8.71297 11.4385 9.42771C10.9595 10.1424 10.3323 10.7458 9.59959 11.1968C8.57719 11.8268 7.33279 11.9 6.13159 11.9H0.881592C1.19539 5.5514 6.44119 0.5 12.8672 0.5Z" fill="black"/>
<path d="M0.867188 13.1H6.13159C7.33279 13.1 8.57719 13.1732 9.59959 13.8032C10.3988 14.2957 11.0715 14.9684 11.564 15.7676C12.194 16.79 12.2672 18.0344 12.2672 19.2356V24.5H4.46719C3.51241 24.5 2.59673 24.1207 1.9216 23.4456C1.24647 22.7705 0.867188 21.8548 0.867188 20.9L0.867188 13.1ZM24.8672 1.7C24.8672 2.01826 24.7408 2.32348 24.5157 2.54853C24.2907 2.77357 23.9854 2.9 23.6672 2.9C23.3489 2.9 23.0437 2.77357 22.8187 2.54853C22.5936 2.32348 22.4672 2.01826 22.4672 1.7C22.4672 1.38174 22.5936 1.07652 22.8187 0.851472C23.0437 0.626428 23.3489 0.5 23.6672 0.5C23.9854 0.5 24.2907 0.626428 24.5157 0.851472C24.7408 1.07652 24.8672 1.38174 24.8672 1.7Z" fill="black"/>
</g>
<path d="M38.9965 22.4148C35.7973 22.4148 33.8672 20.7491 33.8672 17.8144C33.8672 14.8267 35.9559 13.2667 39.631 13.2667H43.2004V12.923C43.2004 10.9929 42.1692 9.98824 40.2391 9.98824C38.5999 9.98824 36.6698 10.0676 35.5064 10.1469V7.92595C36.6433 7.8202 38.124 7.76732 39.3931 7.76732C43.7291 7.76732 45.6328 9.16861 45.6328 13.1081V22.0447H43.6234V19.2421C43.0153 21.3308 41.4553 22.4148 38.9965 22.4148ZM39.5253 20.4054C41.2967 20.4054 43.0946 19.5594 43.2004 16.8096V15.1704H39.5253C37.4894 15.1704 36.3525 16.2544 36.3525 17.8144C36.3525 19.3743 37.4894 20.4054 39.5253 20.4054Z" fill="black"/>
<path d="M51.7719 22.0447H49.2337V7.92595H51.1903V11.3895C51.4811 8.9571 52.8295 7.76732 55.2091 7.76732H57.6944V10.0411H54.5217C52.6973 10.0411 51.7719 10.9665 51.7719 12.7908V22.0447Z" fill="black"/>
<path d="M69.2679 22.2033H67.0999C63.9536 22.2033 61.9706 21.0135 61.9706 17.2327V9.8296H59.5381V7.92595H61.9706V3.64274H64.403V7.92595H69.2679V9.8296H64.403V17.55C64.403 19.057 65.2755 19.9295 66.7826 19.9295H69.2679V22.2033Z" fill="black"/>
<path d="M74.2592 5.65215C73.1223 5.65215 72.5935 4.99116 72.5935 4.06578C72.5935 3.14039 73.1223 2.4794 74.2592 2.4794C75.3961 2.4794 75.9249 3.14039 75.9249 4.06578C75.9249 4.99116 75.3961 5.65215 74.2592 5.65215ZM76.0835 22.0447H73.5453V9.93536H71.3773V7.92595H76.0835V22.0447Z" fill="black"/>
<path d="M83.7938 22.0447H81.3613V9.98824H79.4048V8.08459H81.3613V7.21209C81.3613 4.06578 83.0535 2.63804 86.2526 2.63804H87.9977V4.75321H85.8296C84.5076 4.75321 83.7938 5.51995 83.7938 6.78905V8.08459H88.2621V9.98824H83.7938V22.0447Z" fill="black"/>
<path d="M94.8707 22.4148C91.6715 22.4148 89.7414 20.7491 89.7414 17.8144C89.7414 14.8267 91.8302 13.2667 95.5053 13.2667H99.0746V12.923C99.0746 10.9929 98.0434 9.98824 96.1134 9.98824C94.4741 9.98824 92.544 10.0676 91.3807 10.1469V7.92595C92.5176 7.8202 93.9982 7.76732 95.2673 7.76732C99.6034 7.76732 101.507 9.16861 101.507 13.1081V22.0447H99.4976V19.2421C98.8895 21.3308 97.3296 22.4148 94.8707 22.4148ZM95.3995 20.4054C97.1709 20.4054 98.9688 19.5594 99.0746 16.8096V15.1704H95.3995C93.3637 15.1704 92.2268 16.2544 92.2268 17.8144C92.2268 19.3743 93.3637 20.4054 95.3995 20.4054Z" fill="black"/>
<path d="M112.22 22.5206C107.382 22.5206 105.108 18.7133 105.108 15.2233V14.7474C105.108 11.178 107.435 7.45004 112.167 7.45004C115.71 7.45004 118.354 9.53877 118.592 12.8173H116.16C115.895 11.0458 114.494 9.72385 112.167 9.72385C109.127 9.72385 107.646 11.9712 107.646 14.9853C107.646 17.9201 109.127 20.2468 112.22 20.2468C114.573 20.2468 116.107 18.8719 116.318 17.074H118.751C118.566 20.4054 115.79 22.5206 112.22 22.5206Z" fill="black"/>
<path d="M129.867 22.2033H127.699C124.553 22.2033 122.57 21.0135 122.57 17.2327V9.8296H120.137V7.92595H122.57V3.64274H125.002V7.92595H129.867V9.8296H125.002V17.55C125.002 19.057 125.875 19.9295 127.382 19.9295H129.867V22.2033Z" fill="black"/>
<defs>
<clipPath id="clip0_478_805">
<rect width="24" height="24" fill="white" transform="translate(0.867188 0.5)"/>
</clipPath>
</defs>
</svg>
