<svg width="19" height="18" viewBox="0 0 19 18" fill="none" xmlns="http://www.w3.org/2000/svg">
<g clip-path="url(#clip0_482_3361)">
<path d="M18.6879 5.4001C18.6879 5.4001 18.5121 4.15908 17.9707 3.61416C17.2852 2.89697 16.5188 2.89346 16.1672 2.85127C13.65 2.66846 9.8707 2.66846 9.8707 2.66846H9.86367C9.86367 2.66846 6.08437 2.66846 3.56719 2.85127C3.21563 2.89346 2.44922 2.89697 1.76367 3.61416C1.22227 4.15908 1.05 5.4001 1.05 5.4001C1.05 5.4001 0.867188 6.85908 0.867188 8.31455V9.67861C0.867188 11.1341 1.04648 12.5931 1.04648 12.5931C1.04648 12.5931 1.22227 13.8341 1.76016 14.379C2.4457 15.0962 3.3457 15.0716 3.74648 15.1489C5.18789 15.286 9.86719 15.3282 9.86719 15.3282C9.86719 15.3282 13.65 15.3212 16.1672 15.1419C16.5188 15.0997 17.2852 15.0962 17.9707 14.379C18.5121 13.8341 18.6879 12.5931 18.6879 12.5931C18.6879 12.5931 18.8672 11.1376 18.8672 9.67861V8.31455C18.8672 6.85908 18.6879 5.4001 18.6879 5.4001ZM8.00742 11.3345V6.27549L12.8695 8.81377L8.00742 11.3345Z" fill="white"/>
</g>
<defs>
<clipPath id="clip0_482_3361">
<rect width="18" height="18" fill="white" transform="translate(0.867188)"/>
</clipPath>
</defs>
</svg>
