<svg width="18" height="19" viewBox="0 0 18 19" fill="none" xmlns="http://www.w3.org/2000/svg">
<g clip-path="url(#clip0_277_4786)">
<path d="M16.6676 0.255981H1.32891C0.594141 0.255981 0 0.83606 0 1.55325V16.9552C0 17.6724 0.594141 18.256 1.32891 18.256H16.6676C17.4023 18.256 18 17.6724 18 16.9587V1.55325C18 0.83606 17.4023 0.255981 16.6676 0.255981ZM5.34023 15.5947H2.66836V7.00247H5.34023V15.5947ZM4.0043 5.83176C3.14648 5.83176 2.45391 5.13918 2.45391 4.28489C2.45391 3.43059 3.14648 2.73801 4.0043 2.73801C4.85859 2.73801 5.55117 3.43059 5.55117 4.28489C5.55117 5.13567 4.85859 5.83176 4.0043 5.83176ZM15.3387 15.5947H12.6703V11.4181C12.6703 10.4232 12.6527 9.13997 11.2816 9.13997C9.89297 9.13997 9.68203 10.2263 9.68203 11.3478V15.5947H7.01719V7.00247H9.57656V8.17668H9.61172C9.9668 7.50168 10.8387 6.78801 12.1359 6.78801C14.8395 6.78801 15.3387 8.56692 15.3387 10.8802V15.5947Z" fill="black"/>
</g>
<defs>
<clipPath id="clip0_277_4786">
<rect width="18" height="18" fill="white" transform="translate(0 0.255981)"/>
</clipPath>
</defs>
</svg>
