<svg width="48" height="49" viewBox="0 0 48 49" fill="none" xmlns="http://www.w3.org/2000/svg">
<g clip-path="url(#clip0_2_58)">
<path d="M42 45.915C41.6022 45.915 41.2206 46.0731 40.9393 46.3544C40.658 46.6357 40.5 47.0172 40.5 47.415C40.5 47.8129 40.658 48.1944 40.9393 48.4757C41.2206 48.757 41.6022 48.915 42 48.915C42.3978 48.915 42.7794 48.757 43.0607 48.4757C43.342 48.1944 43.5 47.8129 43.5 47.415C43.5 47.0172 43.342 46.6357 43.0607 46.3544C42.7794 46.0731 42.3978 45.915 42 45.915ZM15 45.915C14.6022 45.915 14.2206 46.0731 13.9393 46.3544C13.658 46.6357 13.5 47.0172 13.5 47.415C13.5 47.8129 13.658 48.1944 13.9393 48.4757C14.2206 48.757 14.6022 48.915 15 48.915C15.3978 48.915 15.7794 48.757 16.0607 48.4757C16.342 48.1944 16.5 47.8129 16.5 47.415C16.5 47.0172 16.342 46.6357 16.0607 46.3544C15.7794 46.0731 15.3978 45.915 15 45.915ZM10.5 45.915C10.1022 45.915 9.72064 46.0731 9.43934 46.3544C9.15804 46.6357 9 47.0172 9 47.415C9 47.8129 9.15804 48.1944 9.43934 48.4757C9.72064 48.757 10.1022 48.915 10.5 48.915C10.8978 48.915 11.2794 48.757 11.5607 48.4757C11.842 48.1944 12 47.8129 12 47.415C12 47.0172 11.842 46.6357 11.5607 46.3544C11.2794 46.0731 10.8978 45.915 10.5 45.915ZM6 45.915C5.60218 45.915 5.22064 46.0731 4.93934 46.3544C4.65804 46.6357 4.5 47.0172 4.5 47.415C4.5 47.8129 4.65804 48.1944 4.93934 48.4757C5.22064 48.757 5.60218 48.915 6 48.915C6.39782 48.915 6.77936 48.757 7.06066 48.4757C7.34196 48.1944 7.5 47.8129 7.5 47.415C7.5 47.0172 7.34196 46.6357 7.06066 46.3544C6.77936 46.0731 6.39782 45.915 6 45.915ZM19.5 45.915C19.1022 45.915 18.7206 46.0731 18.4393 46.3544C18.158 46.6357 18 47.0172 18 47.415C18 47.8129 18.158 48.1944 18.4393 48.4757C18.7206 48.757 19.1022 48.915 19.5 48.915C19.8978 48.915 20.2794 48.757 20.5607 48.4757C20.842 48.1944 21 47.8129 21 47.415C21 47.0172 20.842 46.6357 20.5607 46.3544C20.2794 46.0731 19.8978 45.915 19.5 45.915ZM24 45.915C23.6022 45.915 23.2206 46.0731 22.9393 46.3544C22.658 46.6357 22.5 47.0172 22.5 47.415C22.5 47.8129 22.658 48.1944 22.9393 48.4757C23.2206 48.757 23.6022 48.915 24 48.915C24.3978 48.915 24.7794 48.757 25.0607 48.4757C25.342 48.1944 25.5 47.8129 25.5 47.415C25.5 47.0172 25.342 46.6357 25.0607 46.3544C24.7794 46.0731 24.3978 45.915 24 45.915ZM28.5 45.915C28.1022 45.915 27.7206 46.0731 27.4393 46.3544C27.158 46.6357 27 47.0172 27 47.415C27 47.8129 27.158 48.1944 27.4393 48.4757C27.7206 48.757 28.1022 48.915 28.5 48.915C28.8978 48.915 29.2794 48.757 29.5607 48.4757C29.842 48.1944 30 47.8129 30 47.415C30 47.0172 29.842 46.6357 29.5607 46.3544C29.2794 46.0731 28.8978 45.915 28.5 45.915ZM33 45.915C32.6022 45.915 32.2206 46.0731 31.9393 46.3544C31.658 46.6357 31.5 47.0172 31.5 47.415C31.5 47.8129 31.658 48.1944 31.9393 48.4757C32.2206 48.757 32.6022 48.915 33 48.915C33.3978 48.915 33.7794 48.757 34.0607 48.4757C34.342 48.1944 34.5 47.8129 34.5 47.415C34.5 47.0172 34.342 46.6357 34.0607 46.3544C33.7794 46.0731 33.3978 45.915 33 45.915ZM37.5 45.915C37.1022 45.915 36.7206 46.0731 36.4393 46.3544C36.158 46.6357 36 47.0172 36 47.415C36 47.8129 36.158 48.1944 36.4393 48.4757C36.7206 48.757 37.1022 48.915 37.5 48.915C37.8978 48.915 38.2794 48.757 38.5607 48.4757C38.842 48.1944 39 47.8129 39 47.415C39 47.0172 38.842 46.6357 38.5607 46.3544C38.2794 46.0731 37.8978 45.915 37.5 45.915ZM1.5 14.415C1.10218 14.415 0.720644 14.5731 0.43934 14.8544C0.158035 15.1357 0 15.5172 0 15.915C0 16.3129 0.158035 16.6944 0.43934 16.9757C0.720644 17.257 1.10218 17.415 1.5 17.415C1.89782 17.415 2.27936 17.257 2.56066 16.9757C2.84196 16.6944 3 16.3129 3 15.915C3 15.5172 2.84196 15.1357 2.56066 14.8544C2.27936 14.5731 1.89782 14.415 1.5 14.415ZM46.5 14.415C46.1022 14.415 45.7206 14.5731 45.4393 14.8544C45.158 15.1357 45 15.5172 45 15.915C45 16.3129 45.158 16.6944 45.4393 16.9757C45.7206 17.257 46.1022 17.415 46.5 17.415C46.8978 17.415 47.2794 17.257 47.5607 16.9757C47.842 16.6944 48 16.3129 48 15.915C48 15.5172 47.842 15.1357 47.5607 14.8544C47.2794 14.5731 46.8978 14.415 46.5 14.415ZM24 9.91504C23.6022 9.91504 23.2206 10.0731 22.9393 10.3544C22.658 10.6357 22.5 11.0172 22.5 11.415C22.5 11.8129 22.658 12.1944 22.9393 12.4757C23.2206 12.757 23.6022 12.915 24 12.915C24.3978 12.915 24.7794 12.757 25.0607 12.4757C25.342 12.1944 25.5 11.8129 25.5 11.415C25.5 11.0172 25.342 10.6357 25.0607 10.3544C24.7794 10.0731 24.3978 9.91504 24 9.91504ZM37.5 14.415C37.1022 14.415 36.7206 14.5731 36.4393 14.8544C36.158 15.1357 36 15.5172 36 15.915C36 16.3129 36.158 16.6944 36.4393 16.9757C36.7206 17.257 37.1022 17.415 37.5 17.415C37.8978 17.415 38.2794 17.257 38.5607 16.9757C38.842 16.6944 39 16.3129 39 15.915C39 15.5172 38.842 15.1357 38.5607 14.8544C38.2794 14.5731 37.8978 14.415 37.5 14.415ZM24 14.415C23.6022 14.415 23.2206 14.5731 22.9393 14.8544C22.658 15.1357 22.5 15.5172 22.5 15.915C22.5 16.3129 22.658 16.6944 22.9393 16.9757C23.2206 17.257 23.6022 17.415 24 17.415C24.3978 17.415 24.7794 17.257 25.0607 16.9757C25.342 16.6944 25.5 16.3129 25.5 15.915C25.5 15.5172 25.342 15.1357 25.0607 14.8544C24.7794 14.5731 24.3978 14.415 24 14.415ZM10.5 14.415C10.1022 14.415 9.72064 14.5731 9.43934 14.8544C9.15804 15.1357 9 15.5172 9 15.915C9 16.3129 9.15804 16.6944 9.43934 16.9757C9.72064 17.257 10.1022 17.415 10.5 17.415C10.8978 17.415 11.2794 17.257 11.5607 16.9757C11.842 16.6944 12 16.3129 12 15.915C12 15.5172 11.842 15.1357 11.5607 14.8544C11.2794 14.5731 10.8978 14.415 10.5 14.415ZM6 14.415C5.60218 14.415 5.22064 14.5731 4.93934 14.8544C4.65804 15.1357 4.5 15.5172 4.5 15.915C4.5 16.3129 4.65804 16.6944 4.93934 16.9757C5.22064 17.257 5.60218 17.415 6 17.415C6.39782 17.415 6.77936 17.257 7.06066 16.9757C7.34196 16.6944 7.5 16.3129 7.5 15.915C7.5 15.5172 7.34196 15.1357 7.06066 14.8544C6.77936 14.5731 6.39782 14.415 6 14.415ZM6 23.415C5.60218 23.415 5.22064 23.5731 4.93934 23.8544C4.65804 24.1357 4.5 24.5172 4.5 24.915C4.5 25.3129 4.65804 25.6944 4.93934 25.9757C5.22064 26.257 5.60218 26.415 6 26.415C6.39782 26.415 6.77936 26.257 7.06066 25.9757C7.34196 25.6944 7.5 25.3129 7.5 24.915C7.5 24.5172 7.34196 24.1357 7.06066 23.8544C6.77936 23.5731 6.39782 23.415 6 23.415ZM42 14.415C41.6022 14.415 41.2206 14.5731 40.9393 14.8544C40.658 15.1357 40.5 15.5172 40.5 15.915C40.5 16.3129 40.658 16.6944 40.9393 16.9757C41.2206 17.257 41.6022 17.415 42 17.415C42.3978 17.415 42.7794 17.257 43.0607 16.9757C43.342 16.6944 43.5 16.3129 43.5 15.915C43.5 15.5172 43.342 15.1357 43.0607 14.8544C42.7794 14.5731 42.3978 14.415 42 14.415ZM42 23.415C41.6022 23.415 41.2206 23.5731 40.9393 23.8544C40.658 24.1357 40.5 24.5172 40.5 24.915C40.5 25.3129 40.658 25.6944 40.9393 25.9757C41.2206 26.257 41.6022 26.415 42 26.415C42.3978 26.415 42.7794 26.257 43.0607 25.9757C43.342 25.6944 43.5 25.3129 43.5 24.915C43.5 24.5172 43.342 24.1357 43.0607 23.8544C42.7794 23.5731 42.3978 23.415 42 23.415ZM15 23.415C14.6022 23.415 14.2206 23.5731 13.9393 23.8544C13.658 24.1357 13.5 24.5172 13.5 24.915C13.5 25.3129 13.658 25.6944 13.9393 25.9757C14.2206 26.257 14.6022 26.415 15 26.415C15.3978 26.415 15.7794 26.257 16.0607 25.9757C16.342 25.6944 16.5 25.3129 16.5 24.915C16.5 24.5172 16.342 24.1357 16.0607 23.8544C15.7794 23.5731 15.3978 23.415 15 23.415ZM10.5 18.915C10.1022 18.915 9.72064 19.0731 9.43934 19.3544C9.15804 19.6357 9 20.0172 9 20.415C9 20.8129 9.15804 21.1944 9.43934 21.4757C9.72064 21.757 10.1022 21.915 10.5 21.915C10.8978 21.915 11.2794 21.757 11.5607 21.4757C11.842 21.1944 12 20.8129 12 20.415C12 20.0172 11.842 19.6357 11.5607 19.3544C11.2794 19.0731 10.8978 18.915 10.5 18.915ZM10.5 23.415C10.1022 23.415 9.72064 23.5731 9.43934 23.8544C9.15804 24.1357 9 24.5172 9 24.915C9 25.3129 9.15804 25.6944 9.43934 25.9757C9.72064 26.257 10.1022 26.415 10.5 26.415C10.8978 26.415 11.2794 26.257 11.5607 25.9757C11.842 25.6944 12 25.3129 12 24.915C12 24.5172 11.842 24.1357 11.5607 23.8544C11.2794 23.5731 10.8978 23.415 10.5 23.415ZM10.5 27.915C10.1022 27.915 9.72064 28.0731 9.43934 28.3544C9.15804 28.6357 9 29.0172 9 29.415C9 29.8129 9.15804 30.1944 9.43934 30.4757C9.72064 30.757 10.1022 30.915 10.5 30.915C10.8978 30.915 11.2794 30.757 11.5607 30.4757C11.842 30.1944 12 29.8129 12 29.415C12 29.0172 11.842 28.6357 11.5607 28.3544C11.2794 28.0731 10.8978 27.915 10.5 27.915ZM24 18.915C23.6022 18.915 23.2206 19.0731 22.9393 19.3544C22.658 19.6357 22.5 20.0172 22.5 20.415C22.5 20.8129 22.658 21.1944 22.9393 21.4757C23.2206 21.757 23.6022 21.915 24 21.915C24.3978 21.915 24.7794 21.757 25.0607 21.4757C25.342 21.1944 25.5 20.8129 25.5 20.415C25.5 20.0172 25.342 19.6357 25.0607 19.3544C24.7794 19.0731 24.3978 18.915 24 18.915ZM24 23.415C23.6022 23.415 23.2206 23.5731 22.9393 23.8544C22.658 24.1357 22.5 24.5172 22.5 24.915C22.5 25.3129 22.658 25.6944 22.9393 25.9757C23.2206 26.257 23.6022 26.415 24 26.415C24.3978 26.415 24.7794 26.257 25.0607 25.9757C25.342 25.6944 25.5 25.3129 25.5 24.915C25.5 24.5172 25.342 24.1357 25.0607 23.8544C24.7794 23.5731 24.3978 23.415 24 23.415ZM24 27.915C23.6022 27.915 23.2206 28.0731 22.9393 28.3544C22.658 28.6357 22.5 29.0172 22.5 29.415C22.5 29.8129 22.658 30.1944 22.9393 30.4757C23.2206 30.757 23.6022 30.915 24 30.915C24.3978 30.915 24.7794 30.757 25.0607 30.4757C25.342 30.1944 25.5 29.8129 25.5 29.415C25.5 29.0172 25.342 28.6357 25.0607 28.3544C24.7794 28.0731 24.3978 27.915 24 27.915ZM24 32.415C23.6022 32.415 23.2206 32.5731 22.9393 32.8544C22.658 33.1357 22.5 33.5172 22.5 33.915C22.5 34.3129 22.658 34.6944 22.9393 34.9757C23.2206 35.257 23.6022 35.415 24 35.415C24.3978 35.415 24.7794 35.257 25.0607 34.9757C25.342 34.6944 25.5 34.3129 25.5 33.915C25.5 33.5172 25.342 33.1357 25.0607 32.8544C24.7794 32.5731 24.3978 32.415 24 32.415ZM19.5 32.415C19.1022 32.415 18.7206 32.5731 18.4393 32.8544C18.158 33.1357 18 33.5172 18 33.915C18 34.3129 18.158 34.6944 18.4393 34.9757C18.7206 35.257 19.1022 35.415 19.5 35.415C19.8978 35.415 20.2794 35.257 20.5607 34.9757C20.842 34.6944 21 34.3129 21 33.915C21 33.5172 20.842 33.1357 20.5607 32.8544C20.2794 32.5731 19.8978 32.415 19.5 32.415ZM24 36.915C23.6022 36.915 23.2206 37.0731 22.9393 37.3544C22.658 37.6357 22.5 38.0172 22.5 38.415C22.5 38.8129 22.658 39.1944 22.9393 39.4757C23.2206 39.757 23.6022 39.915 24 39.915C24.3978 39.915 24.7794 39.757 25.0607 39.4757C25.342 39.1944 25.5 38.8129 25.5 38.415C25.5 38.0172 25.342 37.6357 25.0607 37.3544C24.7794 37.0731 24.3978 36.915 24 36.915ZM33 23.415C32.6022 23.415 32.2206 23.5731 31.9393 23.8544C31.658 24.1357 31.5 24.5172 31.5 24.915C31.5 25.3129 31.658 25.6944 31.9393 25.9757C32.2206 26.257 32.6022 26.415 33 26.415C33.3978 26.415 33.7794 26.257 34.0607 25.9757C34.342 25.6944 34.5 25.3129 34.5 24.915C34.5 24.5172 34.342 24.1357 34.0607 23.8544C33.7794 23.5731 33.3978 23.415 33 23.415ZM28.5 32.415C28.1022 32.415 27.7206 32.5731 27.4393 32.8544C27.158 33.1357 27 33.5172 27 33.915C27 34.3129 27.158 34.6944 27.4393 34.9757C27.7206 35.257 28.1022 35.415 28.5 35.415C28.8978 35.415 29.2794 35.257 29.5607 34.9757C29.842 34.6944 30 34.3129 30 33.915C30 33.5172 29.842 33.1357 29.5607 32.8544C29.2794 32.5731 28.8978 32.415 28.5 32.415ZM37.5 18.915C37.1022 18.915 36.7206 19.0731 36.4393 19.3544C36.158 19.6357 36 20.0172 36 20.415C36 20.8129 36.158 21.1944 36.4393 21.4757C36.7206 21.757 37.1022 21.915 37.5 21.915C37.8978 21.915 38.2794 21.757 38.5607 21.4757C38.842 21.1944 39 20.8129 39 20.415C39 20.0172 38.842 19.6357 38.5607 19.3544C38.2794 19.0731 37.8978 18.915 37.5 18.915ZM37.5 23.415C37.1022 23.415 36.7206 23.5731 36.4393 23.8544C36.158 24.1357 36 24.5172 36 24.915C36 25.3129 36.158 25.6944 36.4393 25.9757C36.7206 26.257 37.1022 26.415 37.5 26.415C37.8978 26.415 38.2794 26.257 38.5607 25.9757C38.842 25.6944 39 25.3129 39 24.915C39 24.5172 38.842 24.1357 38.5607 23.8544C38.2794 23.5731 37.8978 23.415 37.5 23.415ZM37.5 27.915C37.1022 27.915 36.7206 28.0731 36.4393 28.3544C36.158 28.6357 36 29.0172 36 29.415C36 29.8129 36.158 30.1944 36.4393 30.4757C36.7206 30.757 37.1022 30.915 37.5 30.915C37.8978 30.915 38.2794 30.757 38.5607 30.4757C38.842 30.1944 39 29.8129 39 29.415C39 29.0172 38.842 28.6357 38.5607 28.3544C38.2794 28.0731 37.8978 27.915 37.5 27.915ZM42 41.415C41.6022 41.415 41.2206 41.5731 40.9393 41.8544C40.658 42.1357 40.5 42.5172 40.5 42.915C40.5 43.3129 40.658 43.6944 40.9393 43.9757C41.2206 44.257 41.6022 44.415 42 44.415C42.3978 44.415 42.7794 44.257 43.0607 43.9757C43.342 43.6944 43.5 43.3129 43.5 42.915C43.5 42.5172 43.342 42.1357 43.0607 41.8544C42.7794 41.5731 42.3978 41.415 42 41.415ZM6 41.415C5.60218 41.415 5.22064 41.5731 4.93934 41.8544C4.65804 42.1357 4.5 42.5172 4.5 42.915C4.5 43.3129 4.65804 43.6944 4.93934 43.9757C5.22064 44.257 5.60218 44.415 6 44.415C6.39782 44.415 6.77936 44.257 7.06066 43.9757C7.34196 43.6944 7.5 43.3129 7.5 42.915C7.5 42.5172 7.34196 42.1357 7.06066 41.8544C6.77936 41.5731 6.39782 41.415 6 41.415Z" fill="white"/>
</g>
<defs>
<clipPath id="clip0_2_58">
<rect width="48" height="48" fill="white" transform="translate(0 0.915039)"/>
</clipPath>
</defs>
</svg>
