<svg width="48" height="49" viewBox="0 0 48 49" fill="none" xmlns="http://www.w3.org/2000/svg">
<path d="M6 8.41504C6.82843 8.41504 7.5 7.74347 7.5 6.91504C7.5 6.08661 6.82843 5.41504 6 5.41504C5.17157 5.41504 4.5 6.08661 4.5 6.91504C4.5 7.74347 5.17157 8.41504 6 8.41504Z" fill="black"/>
<path d="M10.5 8.41504C11.3284 8.41504 12 7.74347 12 6.91504C12 6.08661 11.3284 5.41504 10.5 5.41504C9.67157 5.41504 9 6.08661 9 6.91504C9 7.74347 9.67157 8.41504 10.5 8.41504Z" fill="black"/>
<path d="M15 8.41504C15.8284 8.41504 16.5 7.74347 16.5 6.91504C16.5 6.08661 15.8284 5.41504 15 5.41504C14.1716 5.41504 13.5 6.08661 13.5 6.91504C13.5 7.74347 14.1716 8.41504 15 8.41504Z" fill="black"/>
<path d="M19.5 8.41504C20.3284 8.41504 21 7.74347 21 6.91504C21 6.08661 20.3284 5.41504 19.5 5.41504C18.6716 5.41504 18 6.08661 18 6.91504C18 7.74347 18.6716 8.41504 19.5 8.41504Z" fill="black"/>
<path d="M24 8.41504C24.8284 8.41504 25.5 7.74347 25.5 6.91504C25.5 6.08661 24.8284 5.41504 24 5.41504C23.1716 5.41504 22.5 6.08661 22.5 6.91504C22.5 7.74347 23.1716 8.41504 24 8.41504Z" fill="black"/>
<path d="M28.5 8.41504C29.3284 8.41504 30 7.74347 30 6.91504C30 6.08661 29.3284 5.41504 28.5 5.41504C27.6716 5.41504 27 6.08661 27 6.91504C27 7.74347 27.6716 8.41504 28.5 8.41504Z" fill="black"/>
<path d="M33 8.41504C33.8284 8.41504 34.5 7.74347 34.5 6.91504C34.5 6.08661 33.8284 5.41504 33 5.41504C32.1716 5.41504 31.5 6.08661 31.5 6.91504C31.5 7.74347 32.1716 8.41504 33 8.41504Z" fill="black"/>
<path d="M37.5 8.41504C38.3284 8.41504 39 7.74347 39 6.91504C39 6.08661 38.3284 5.41504 37.5 5.41504C36.6716 5.41504 36 6.08661 36 6.91504C36 7.74347 36.6716 8.41504 37.5 8.41504Z" fill="black"/>
<path d="M42 8.41504C42.8284 8.41504 43.5 7.74347 43.5 6.91504C43.5 6.08661 42.8284 5.41504 42 5.41504C41.1716 5.41504 40.5 6.08661 40.5 6.91504C40.5 7.74347 41.1716 8.41504 42 8.41504Z" fill="black"/>
<path d="M6 12.915C6.82843 12.915 7.5 12.2435 7.5 11.415C7.5 10.5866 6.82843 9.91504 6 9.91504C5.17157 9.91504 4.5 10.5866 4.5 11.415C4.5 12.2435 5.17157 12.915 6 12.915Z" fill="black"/>
<path d="M15 17.415C15.8284 17.415 16.5 16.7435 16.5 15.915C16.5 15.0866 15.8284 14.415 15 14.415C14.1716 14.415 13.5 15.0866 13.5 15.915C13.5 16.7435 14.1716 17.415 15 17.415Z" fill="black"/>
<path d="M24 12.915C24.8284 12.915 25.5 12.2435 25.5 11.415C25.5 10.5866 24.8284 9.91504 24 9.91504C23.1716 9.91504 22.5 10.5866 22.5 11.415C22.5 12.2435 23.1716 12.915 24 12.915Z" fill="black"/>
<path d="M33 12.915C33.8284 12.915 34.5 12.2435 34.5 11.415C34.5 10.5866 33.8284 9.91504 33 9.91504C32.1716 9.91504 31.5 10.5866 31.5 11.415C31.5 12.2435 32.1716 12.915 33 12.915Z" fill="black"/>
<path d="M42 12.915C42.8284 12.915 43.5 12.2435 43.5 11.415C43.5 10.5866 42.8284 9.91504 42 9.91504C41.1716 9.91504 40.5 10.5866 40.5 11.415C40.5 12.2435 41.1716 12.915 42 12.915Z" fill="black"/>
<path d="M6 17.415C6.82843 17.415 7.5 16.7435 7.5 15.915C7.5 15.0866 6.82843 14.415 6 14.415C5.17157 14.415 4.5 15.0866 4.5 15.915C4.5 16.7435 5.17157 17.415 6 17.415Z" fill="black"/>
<path d="M24 17.415C24.8284 17.415 25.5 16.7435 25.5 15.915C25.5 15.0866 24.8284 14.415 24 14.415C23.1716 14.415 22.5 15.0866 22.5 15.915C22.5 16.7435 23.1716 17.415 24 17.415Z" fill="black"/>
<path d="M28.5 17.415C29.3284 17.415 30 16.7435 30 15.915C30 15.0866 29.3284 14.415 28.5 14.415C27.6716 14.415 27 15.0866 27 15.915C27 16.7435 27.6716 17.415 28.5 17.415Z" fill="black"/>
<path d="M33 17.415C33.8284 17.415 34.5 16.7435 34.5 15.915C34.5 15.0866 33.8284 14.415 33 14.415C32.1716 14.415 31.5 15.0866 31.5 15.915C31.5 16.7435 32.1716 17.415 33 17.415Z" fill="black"/>
<path d="M37.5 17.415C38.3284 17.415 39 16.7435 39 15.915C39 15.0866 38.3284 14.415 37.5 14.415C36.6716 14.415 36 15.0866 36 15.915C36 16.7435 36.6716 17.415 37.5 17.415Z" fill="black"/>
<path d="M42 17.415C42.8284 17.415 43.5 16.7435 43.5 15.915C43.5 15.0866 42.8284 14.415 42 14.415C41.1716 14.415 40.5 15.0866 40.5 15.915C40.5 16.7435 41.1716 17.415 42 17.415Z" fill="black"/>
<path d="M6 21.915C6.82843 21.915 7.5 21.2435 7.5 20.415C7.5 19.5866 6.82843 18.915 6 18.915C5.17157 18.915 4.5 19.5866 4.5 20.415C4.5 21.2435 5.17157 21.915 6 21.915Z" fill="black"/>
<path d="M15 26.415C15.8284 26.415 16.5 25.7435 16.5 24.915C16.5 24.0866 15.8284 23.415 15 23.415C14.1716 23.415 13.5 24.0866 13.5 24.915C13.5 25.7435 14.1716 26.415 15 26.415Z" fill="black"/>
<path d="M24 21.915C24.8284 21.915 25.5 21.2435 25.5 20.415C25.5 19.5866 24.8284 18.915 24 18.915C23.1716 18.915 22.5 19.5866 22.5 20.415C22.5 21.2435 23.1716 21.915 24 21.915Z" fill="black"/>
<path d="M33 21.915C33.8284 21.915 34.5 21.2435 34.5 20.415C34.5 19.5866 33.8284 18.915 33 18.915C32.1716 18.915 31.5 19.5866 31.5 20.415C31.5 21.2435 32.1716 21.915 33 21.915Z" fill="black"/>
<path d="M42 21.915C42.8284 21.915 43.5 21.2435 43.5 20.415C43.5 19.5866 42.8284 18.915 42 18.915C41.1716 18.915 40.5 19.5866 40.5 20.415C40.5 21.2435 41.1716 21.915 42 21.915Z" fill="black"/>
<path d="M6 26.415C6.82843 26.415 7.5 25.7435 7.5 24.915C7.5 24.0866 6.82843 23.415 6 23.415C5.17157 23.415 4.5 24.0866 4.5 24.915C4.5 25.7435 5.17157 26.415 6 26.415Z" fill="black"/>
<path d="M24 26.415C24.8284 26.415 25.5 25.7435 25.5 24.915C25.5 24.0866 24.8284 23.415 24 23.415C23.1716 23.415 22.5 24.0866 22.5 24.915C22.5 25.7435 23.1716 26.415 24 26.415Z" fill="black"/>
<path d="M33 26.415C33.8284 26.415 34.5 25.7435 34.5 24.915C34.5 24.0866 33.8284 23.415 33 23.415C32.1716 23.415 31.5 24.0866 31.5 24.915C31.5 25.7435 32.1716 26.415 33 26.415Z" fill="black"/>
<path d="M42 26.415C42.8284 26.415 43.5 25.7435 43.5 24.915C43.5 24.0866 42.8284 23.415 42 23.415C41.1716 23.415 40.5 24.0866 40.5 24.915C40.5 25.7435 41.1716 26.415 42 26.415Z" fill="black"/>
<path d="M6 30.915C6.82843 30.915 7.5 30.2435 7.5 29.415C7.5 28.5866 6.82843 27.915 6 27.915C5.17157 27.915 4.5 28.5866 4.5 29.415C4.5 30.2435 5.17157 30.915 6 30.915Z" fill="black"/>
<path d="M24 30.915C24.8284 30.915 25.5 30.2435 25.5 29.415C25.5 28.5866 24.8284 27.915 24 27.915C23.1716 27.915 22.5 28.5866 22.5 29.415C22.5 30.2435 23.1716 30.915 24 30.915Z" fill="black"/>
<path d="M33 30.915C33.8284 30.915 34.5 30.2435 34.5 29.415C34.5 28.5866 33.8284 27.915 33 27.915C32.1716 27.915 31.5 28.5866 31.5 29.415C31.5 30.2435 32.1716 30.915 33 30.915Z" fill="black"/>
<path d="M42 30.915C42.8284 30.915 43.5 30.2435 43.5 29.415C43.5 28.5866 42.8284 27.915 42 27.915C41.1716 27.915 40.5 28.5866 40.5 29.415C40.5 30.2435 41.1716 30.915 42 30.915Z" fill="black"/>
<path d="M6 35.415C6.82843 35.415 7.5 34.7435 7.5 33.915C7.5 33.0866 6.82843 32.415 6 32.415C5.17157 32.415 4.5 33.0866 4.5 33.915C4.5 34.7435 5.17157 35.415 6 35.415Z" fill="black"/>
<path d="M24 35.415C24.8284 35.415 25.5 34.7435 25.5 33.915C25.5 33.0866 24.8284 32.415 24 32.415C23.1716 32.415 22.5 33.0866 22.5 33.915C22.5 34.7435 23.1716 35.415 24 35.415Z" fill="black"/>
<path d="M33 35.415C33.8284 35.415 34.5 34.7435 34.5 33.915C34.5 33.0866 33.8284 32.415 33 32.415C32.1716 32.415 31.5 33.0866 31.5 33.915C31.5 34.7435 32.1716 35.415 33 35.415Z" fill="black"/>
<path d="M42 35.415C42.8284 35.415 43.5 34.7435 43.5 33.915C43.5 33.0866 42.8284 32.415 42 32.415C41.1716 32.415 40.5 33.0866 40.5 33.915C40.5 34.7435 41.1716 35.415 42 35.415Z" fill="black"/>
<path d="M6 39.915C6.82843 39.915 7.5 39.2435 7.5 38.415C7.5 37.5866 6.82843 36.915 6 36.915C5.17157 36.915 4.5 37.5866 4.5 38.415C4.5 39.2435 5.17157 39.915 6 39.915Z" fill="black"/>
<path d="M24 39.915C24.8284 39.915 25.5 39.2435 25.5 38.415C25.5 37.5866 24.8284 36.915 24 36.915C23.1716 36.915 22.5 37.5866 22.5 38.415C22.5 39.2435 23.1716 39.915 24 39.915Z" fill="black"/>
<path d="M33 39.915C33.8284 39.915 34.5 39.2435 34.5 38.415C34.5 37.5866 33.8284 36.915 33 36.915C32.1716 36.915 31.5 37.5866 31.5 38.415C31.5 39.2435 32.1716 39.915 33 39.915Z" fill="black"/>
<path d="M42 39.915C42.8284 39.915 43.5 39.2435 43.5 38.415C43.5 37.5866 42.8284 36.915 42 36.915C41.1716 36.915 40.5 37.5866 40.5 38.415C40.5 39.2435 41.1716 39.915 42 39.915Z" fill="black"/>
<path d="M6 44.415C6.82843 44.415 7.5 43.7435 7.5 42.915C7.5 42.0866 6.82843 41.415 6 41.415C5.17157 41.415 4.5 42.0866 4.5 42.915C4.5 43.7435 5.17157 44.415 6 44.415Z" fill="black"/>
<path d="M10.5 44.415C11.3284 44.415 12 43.7435 12 42.915C12 42.0866 11.3284 41.415 10.5 41.415C9.67157 41.415 9 42.0866 9 42.915C9 43.7435 9.67157 44.415 10.5 44.415Z" fill="black"/>
<path d="M15 44.415C15.8284 44.415 16.5 43.7435 16.5 42.915C16.5 42.0866 15.8284 41.415 15 41.415C14.1716 41.415 13.5 42.0866 13.5 42.915C13.5 43.7435 14.1716 44.415 15 44.415Z" fill="black"/>
<path d="M19.5 44.415C20.3284 44.415 21 43.7435 21 42.915C21 42.0866 20.3284 41.415 19.5 41.415C18.6716 41.415 18 42.0866 18 42.915C18 43.7435 18.6716 44.415 19.5 44.415Z" fill="black"/>
<path d="M24 44.415C24.8284 44.415 25.5 43.7435 25.5 42.915C25.5 42.0866 24.8284 41.415 24 41.415C23.1716 41.415 22.5 42.0866 22.5 42.915C22.5 43.7435 23.1716 44.415 24 44.415Z" fill="black"/>
<path d="M28.5 44.415C29.3284 44.415 30 43.7435 30 42.915C30 42.0866 29.3284 41.415 28.5 41.415C27.6716 41.415 27 42.0866 27 42.915C27 43.7435 27.6716 44.415 28.5 44.415Z" fill="black"/>
<path d="M33 44.415C33.8284 44.415 34.5 43.7435 34.5 42.915C34.5 42.0866 33.8284 41.415 33 41.415C32.1716 41.415 31.5 42.0866 31.5 42.915C31.5 43.7435 32.1716 44.415 33 44.415Z" fill="black"/>
<path d="M37.5 44.415C38.3284 44.415 39 43.7435 39 42.915C39 42.0866 38.3284 41.415 37.5 41.415C36.6716 41.415 36 42.0866 36 42.915C36 43.7435 36.6716 44.415 37.5 44.415Z" fill="black"/>
<path d="M42 44.415C42.8284 44.415 43.5 43.7435 43.5 42.915C43.5 42.0866 42.8284 41.415 42 41.415C41.1716 41.415 40.5 42.0866 40.5 42.915C40.5 43.7435 41.1716 44.415 42 44.415Z" fill="black"/>
</svg>
