<svg width="48" height="49" viewBox="0 0 48 49" fill="none" xmlns="http://www.w3.org/2000/svg">
<g clip-path="url(#clip0_2_62)">
<path d="M42 36.915C41.6022 36.915 41.2206 37.0731 40.9393 37.3544C40.658 37.6357 40.5 38.0172 40.5 38.415C40.5 38.8129 40.658 39.1944 40.9393 39.4757C41.2206 39.757 41.6022 39.915 42 39.915C42.3978 39.915 42.7794 39.757 43.0607 39.4757C43.342 39.1944 43.5 38.8129 43.5 38.415C43.5 38.0172 43.342 37.6357 43.0607 37.3544C42.7794 37.0731 42.3978 36.915 42 36.915ZM42 18.915C41.6022 18.915 41.2206 19.0731 40.9393 19.3544C40.658 19.6357 40.5 20.0172 40.5 20.415C40.5 20.8129 40.658 21.1944 40.9393 21.4757C41.2206 21.757 41.6022 21.915 42 21.915C42.3978 21.915 42.7794 21.757 43.0607 21.4757C43.342 21.1944 43.5 20.8129 43.5 20.415C43.5 20.0172 43.342 19.6357 43.0607 19.3544C42.7794 19.0731 42.3978 18.915 42 18.915ZM42 14.415C41.6022 14.415 41.2206 14.5731 40.9393 14.8544C40.658 15.1357 40.5 15.5172 40.5 15.915C40.5 16.3129 40.658 16.6944 40.9393 16.9757C41.2206 17.257 41.6022 17.415 42 17.415C42.3978 17.415 42.7794 17.257 43.0607 16.9757C43.342 16.6944 43.5 16.3129 43.5 15.915C43.5 15.5172 43.342 15.1357 43.0607 14.8544C42.7794 14.5731 42.3978 14.415 42 14.415ZM33 9.91504C32.6022 9.91504 32.2206 10.0731 31.9393 10.3544C31.658 10.6357 31.5 11.0172 31.5 11.415C31.5 11.8129 31.658 12.1944 31.9393 12.4757C32.2206 12.757 32.6022 12.915 33 12.915C33.3978 12.915 33.7794 12.757 34.0607 12.4757C34.342 12.1944 34.5 11.8129 34.5 11.415C34.5 11.0172 34.342 10.6357 34.0607 10.3544C33.7794 10.0731 33.3978 9.91504 33 9.91504ZM28.5 9.91504C28.1022 9.91504 27.7206 10.0731 27.4393 10.3544C27.158 10.6357 27 11.0172 27 11.415C27 11.8129 27.158 12.1944 27.4393 12.4757C27.7206 12.757 28.1022 12.915 28.5 12.915C28.8978 12.915 29.2794 12.757 29.5607 12.4757C29.842 12.1944 30 11.8129 30 11.415C30 11.0172 29.842 10.6357 29.5607 10.3544C29.2794 10.0731 28.8978 9.91504 28.5 9.91504ZM24 14.415C23.6022 14.415 23.2206 14.5731 22.9393 14.8544C22.658 15.1357 22.5 15.5172 22.5 15.915C22.5 16.3129 22.658 16.6944 22.9393 16.9757C23.2206 17.257 23.6022 17.415 24 17.415C24.3978 17.415 24.7794 17.257 25.0607 16.9757C25.342 16.6944 25.5 16.3129 25.5 15.915C25.5 15.5172 25.342 15.1357 25.0607 14.8544C24.7794 14.5731 24.3978 14.415 24 14.415ZM1.5 27.915C1.10218 27.915 0.720644 28.0731 0.43934 28.3544C0.158035 28.6357 0 29.0172 0 29.415C0 29.8129 0.158035 30.1944 0.43934 30.4757C0.720644 30.757 1.10218 30.915 1.5 30.915C1.89782 30.915 2.27936 30.757 2.56066 30.4757C2.84196 30.1944 3 29.8129 3 29.415C3 29.0172 2.84196 28.6357 2.56066 28.3544C2.27936 28.0731 1.89782 27.915 1.5 27.915ZM1.5 32.415C1.10218 32.415 0.720644 32.5731 0.43934 32.8544C0.158035 33.1357 0 33.5172 0 33.915C0 34.3129 0.158035 34.6944 0.43934 34.9757C0.720644 35.257 1.10218 35.415 1.5 35.415C1.89782 35.415 2.27936 35.257 2.56066 34.9757C2.84196 34.6944 3 34.3129 3 33.915C3 33.5172 2.84196 33.1357 2.56066 32.8544C2.27936 32.5731 1.89782 32.415 1.5 32.415ZM37.5 9.91504C37.1022 9.91504 36.7206 10.0731 36.4393 10.3544C36.158 10.6357 36 11.0172 36 11.415C36 11.8129 36.158 12.1944 36.4393 12.4757C36.7206 12.757 37.1022 12.915 37.5 12.915C37.8978 12.915 38.2794 12.757 38.5607 12.4757C38.842 12.1944 39 11.8129 39 11.415C39 11.0172 38.842 10.6357 38.5607 10.3544C38.2794 10.0731 37.8978 9.91504 37.5 9.91504ZM10.5 18.915C10.1022 18.915 9.72064 19.0731 9.43934 19.3544C9.15804 19.6357 9 20.0172 9 20.415C9 20.8129 9.15804 21.1944 9.43934 21.4757C9.72064 21.757 10.1022 21.915 10.5 21.915C10.8978 21.915 11.2794 21.757 11.5607 21.4757C11.842 21.1944 12 20.8129 12 20.415C12 20.0172 11.842 19.6357 11.5607 19.3544C11.2794 19.0731 10.8978 18.915 10.5 18.915ZM6 23.415C5.60218 23.415 5.22064 23.5731 4.93934 23.8544C4.65804 24.1357 4.5 24.5172 4.5 24.915C4.5 25.3129 4.65804 25.6944 4.93934 25.9757C5.22064 26.257 5.60218 26.415 6 26.415C6.39782 26.415 6.77936 26.257 7.06066 25.9757C7.34196 25.6944 7.5 25.3129 7.5 24.915C7.5 24.5172 7.34196 24.1357 7.06066 23.8544C6.77936 23.5731 6.39782 23.415 6 23.415ZM10.5 36.915C10.1022 36.915 9.72064 37.0731 9.43934 37.3544C9.15804 37.6357 9 38.0172 9 38.415C9 38.8129 9.15804 39.1944 9.43934 39.4757C9.72064 39.757 10.1022 39.915 10.5 39.915C10.8978 39.915 11.2794 39.757 11.5607 39.4757C11.842 39.1944 12 38.8129 12 38.415C12 38.0172 11.842 37.6357 11.5607 37.3544C11.2794 37.0731 10.8978 36.915 10.5 36.915ZM6 36.915C5.60218 36.915 5.22064 37.0731 4.93934 37.3544C4.65804 37.6357 4.5 38.0172 4.5 38.415C4.5 38.8129 4.65804 39.1944 4.93934 39.4757C5.22064 39.757 5.60218 39.915 6 39.915C6.39782 39.915 6.77936 39.757 7.06066 39.4757C7.34196 39.1944 7.5 38.8129 7.5 38.415C7.5 38.0172 7.34196 37.6357 7.06066 37.3544C6.77936 37.0731 6.39782 36.915 6 36.915ZM19.5 18.915C19.1022 18.915 18.7206 19.0731 18.4393 19.3544C18.158 19.6357 18 20.0172 18 20.415C18 20.8129 18.158 21.1944 18.4393 21.4757C18.7206 21.757 19.1022 21.915 19.5 21.915C19.8978 21.915 20.2794 21.757 20.5607 21.4757C20.842 21.1944 21 20.8129 21 20.415C21 20.0172 20.842 19.6357 20.5607 19.3544C20.2794 19.0731 19.8978 18.915 19.5 18.915ZM19.5 23.415C19.1022 23.415 18.7206 23.5731 18.4393 23.8544C18.158 24.1357 18 24.5172 18 24.915C18 25.3129 18.158 25.6944 18.4393 25.9757C18.7206 26.257 19.1022 26.415 19.5 26.415C19.8978 26.415 20.2794 26.257 20.5607 25.9757C20.842 25.6944 21 25.3129 21 24.915C21 24.5172 20.842 24.1357 20.5607 23.8544C20.2794 23.5731 19.8978 23.415 19.5 23.415ZM15 18.915C14.6022 18.915 14.2206 19.0731 13.9393 19.3544C13.658 19.6357 13.5 20.0172 13.5 20.415C13.5 20.8129 13.658 21.1944 13.9393 21.4757C14.2206 21.757 14.6022 21.915 15 21.915C15.3978 21.915 15.7794 21.757 16.0607 21.4757C16.342 21.1944 16.5 20.8129 16.5 20.415C16.5 20.0172 16.342 19.6357 16.0607 19.3544C15.7794 19.0731 15.3978 18.915 15 18.915ZM19.5 36.915C19.1022 36.915 18.7206 37.0731 18.4393 37.3544C18.158 37.6357 18 38.0172 18 38.415C18 38.8129 18.158 39.1944 18.4393 39.4757C18.7206 39.757 19.1022 39.915 19.5 39.915C19.8978 39.915 20.2794 39.757 20.5607 39.4757C20.842 39.1944 21 38.8129 21 38.415C21 38.0172 20.842 37.6357 20.5607 37.3544C20.2794 37.0731 19.8978 36.915 19.5 36.915ZM15 36.915C14.6022 36.915 14.2206 37.0731 13.9393 37.3544C13.658 37.6357 13.5 38.0172 13.5 38.415C13.5 38.8129 13.658 39.1944 13.9393 39.4757C14.2206 39.757 14.6022 39.915 15 39.915C15.3978 39.915 15.7794 39.757 16.0607 39.4757C16.342 39.1944 16.5 38.8129 16.5 38.415C16.5 38.0172 16.342 37.6357 16.0607 37.3544C15.7794 37.0731 15.3978 36.915 15 36.915ZM24 27.915C23.6022 27.915 23.2206 28.0731 22.9393 28.3544C22.658 28.6357 22.5 29.0172 22.5 29.415C22.5 29.8129 22.658 30.1944 22.9393 30.4757C23.2206 30.757 23.6022 30.915 24 30.915C24.3978 30.915 24.7794 30.757 25.0607 30.4757C25.342 30.1944 25.5 29.8129 25.5 29.415C25.5 29.0172 25.342 28.6357 25.0607 28.3544C24.7794 28.0731 24.3978 27.915 24 27.915ZM28.5 36.915C28.1022 36.915 27.7206 37.0731 27.4393 37.3544C27.158 37.6357 27 38.0172 27 38.415C27 38.8129 27.158 39.1944 27.4393 39.4757C27.7206 39.757 28.1022 39.915 28.5 39.915C28.8978 39.915 29.2794 39.757 29.5607 39.4757C29.842 39.1944 30 38.8129 30 38.415C30 38.0172 29.842 37.6357 29.5607 37.3544C29.2794 37.0731 28.8978 36.915 28.5 36.915ZM33 36.915C32.6022 36.915 32.2206 37.0731 31.9393 37.3544C31.658 37.6357 31.5 38.0172 31.5 38.415C31.5 38.8129 31.658 39.1944 31.9393 39.4757C32.2206 39.757 32.6022 39.915 33 39.915C33.3978 39.915 33.7794 39.757 34.0607 39.4757C34.342 39.1944 34.5 38.8129 34.5 38.415C34.5 38.0172 34.342 37.6357 34.0607 37.3544C33.7794 37.0731 33.3978 36.915 33 36.915ZM24 36.915C23.6022 36.915 23.2206 37.0731 22.9393 37.3544C22.658 37.6357 22.5 38.0172 22.5 38.415C22.5 38.8129 22.658 39.1944 22.9393 39.4757C23.2206 39.757 23.6022 39.915 24 39.915C24.3978 39.915 24.7794 39.757 25.0607 39.4757C25.342 39.1944 25.5 38.8129 25.5 38.415C25.5 38.0172 25.342 37.6357 25.0607 37.3544C24.7794 37.0731 24.3978 36.915 24 36.915ZM37.5 36.915C37.1022 36.915 36.7206 37.0731 36.4393 37.3544C36.158 37.6357 36 38.0172 36 38.415C36 38.8129 36.158 39.1944 36.4393 39.4757C36.7206 39.757 37.1022 39.915 37.5 39.915C37.8978 39.915 38.2794 39.757 38.5607 39.4757C38.842 39.1944 39 38.8129 39 38.415C39 38.0172 38.842 37.6357 38.5607 37.3544C38.2794 37.0731 37.8978 36.915 37.5 36.915ZM46.5 32.415C46.1022 32.415 45.7206 32.5731 45.4393 32.8544C45.158 33.1357 45 33.5172 45 33.915C45 34.3129 45.158 34.6944 45.4393 34.9757C45.7206 35.257 46.1022 35.415 46.5 35.415C46.8978 35.415 47.2794 35.257 47.5607 34.9757C47.842 34.6944 48 34.3129 48 33.915C48 33.5172 47.842 33.1357 47.5607 32.8544C47.2794 32.5731 46.8978 32.415 46.5 32.415ZM46.5 27.915C46.1022 27.915 45.7206 28.0731 45.4393 28.3544C45.158 28.6357 45 29.0172 45 29.415C45 29.8129 45.158 30.1944 45.4393 30.4757C45.7206 30.757 46.1022 30.915 46.5 30.915C46.8978 30.915 47.2794 30.757 47.5607 30.4757C47.842 30.1944 48 29.8129 48 29.415C48 29.0172 47.842 28.6357 47.5607 28.3544C47.2794 28.0731 46.8978 27.915 46.5 27.915ZM46.5 23.415C46.1022 23.415 45.7206 23.5731 45.4393 23.8544C45.158 24.1357 45 24.5172 45 24.915C45 25.3129 45.158 25.6944 45.4393 25.9757C45.7206 26.257 46.1022 26.415 46.5 26.415C46.8978 26.415 47.2794 26.257 47.5607 25.9757C47.842 25.6944 48 25.3129 48 24.915C48 24.5172 47.842 24.1357 47.5607 23.8544C47.2794 23.5731 46.8978 23.415 46.5 23.415Z" fill="white"/>
</g>
<defs>
<clipPath id="clip0_2_62">
<rect width="48" height="48" fill="white" transform="translate(0 0.915039)"/>
</clipPath>
</defs>
</svg>
