<svg width="48" height="49" viewBox="0 0 48 49" fill="none" xmlns="http://www.w3.org/2000/svg">
<g clip-path="url(#clip0_258_2306)">
<path d="M47.8671 26.706H39.2936C31.8045 26.706 25.7336 32.777 25.7336 40.266V48.8395C37.5534 47.963 46.9906 38.5258 47.8671 26.706Z" fill="#FAD83B"/>
<path d="M22.1336 48.8395V40.266C22.1336 32.777 16.0625 26.706 8.57352 26.706H0C0.876401 38.5258 10.3136 47.963 22.1336 48.8395Z" fill="#FAD83B"/>
<path d="M47.8671 23.106C46.9906 11.286 37.5534 1.84881 25.7336 0.972412V9.54593C25.7336 17.0349 31.8045 23.106 39.2936 23.106H47.8671Z" fill="#FAD83B"/>
<path d="M22.1336 0.972412C10.3136 1.84881 0.876401 11.286 0 23.106H8.57352C16.0625 23.106 22.1336 17.0349 22.1336 9.54593V0.972412Z" fill="#FAD83B"/>
<path d="M16.2328 24.906C19.5598 23.2436 22.2712 20.5322 23.9334 17.2052C25.5958 20.5322 28.3071 23.2436 31.6342 24.906C28.3071 26.5682 25.5958 29.2796 23.9334 32.6066C22.2712 29.2796 19.5598 26.5682 16.2328 24.906Z" fill="#FAD83B"/>
</g>
<defs>
<clipPath id="clip0_258_2306">
<rect width="47.8671" height="47.8671" fill="white" transform="translate(0 0.972412)"/>
</clipPath>
</defs>
</svg>
