<svg width="170" height="23" viewBox="0 0 170 23" fill="none" xmlns="http://www.w3.org/2000/svg">
<path d="M13.6592 8.86098C12.3771 8.45303 11.095 8.10336 9.66719 8.10336C5.96653 8.10336 3.78109 10.551 3.78109 13.902C3.78109 17.2239 5.96653 19.7007 9.66719 19.7007C11.1241 19.7007 12.4063 19.3219 13.6592 18.9431V21.7404C12.2897 22.1775 10.9493 22.4106 9.63805 22.4106C4.48043 22.4106 0.867188 18.8848 0.867188 13.902C0.867188 8.91925 4.48043 5.39343 9.63805 5.39343C10.9493 5.39343 12.2897 5.62654 13.6592 6.06362V8.86098Z" fill="white"/>
<path d="M23.7441 5.39343C28.6686 5.39343 32.1653 9.09409 32.1653 13.902C32.1653 18.71 28.6686 22.4106 23.7441 22.4106C18.8196 22.4106 15.3229 18.71 15.3229 13.902C15.3229 9.09409 18.8196 5.39343 23.7441 5.39343ZM18.2368 13.902C18.2368 17.1947 20.364 19.7298 23.7441 19.7298C27.1242 19.7298 29.2222 17.1947 29.2222 13.902C29.2222 10.6093 27.1242 8.07422 23.7441 8.07422C20.364 8.07422 18.2368 10.6093 18.2368 13.902Z" fill="white"/>
<path d="M34.747 5.7431H37.6318V8.86098C38.4477 6.52985 40.3126 5.39343 42.6146 5.39343C45.7033 5.39343 48.2967 7.49144 48.2967 11.8914V22.061H45.3828V12.1246C45.3828 9.61859 44.1881 7.92853 41.653 7.92853C38.9431 7.92853 37.661 9.88084 37.661 12.5616V22.061H34.747V5.7431Z" fill="white"/>
<path d="M57.4332 22.2358C54.1696 22.2358 52.7709 20.6914 52.7709 17.5736V8.36561H50.2941V5.7431H52.7709V2.45038L55.6848 1.60535V5.7431H59.9391V8.36561H55.6848V17.1365C55.6848 19.1179 56.2968 19.555 57.8411 19.555C58.5696 19.555 59.2981 19.4676 59.9391 19.351V22.0027C59.0941 22.1484 58.2782 22.2358 57.4332 22.2358Z" fill="white"/>
<path d="M62.5771 5.7431H65.491V22.061H62.5771V5.7431ZM62.548 3.0623V0.410645H65.5785V3.0623H62.548Z" fill="white"/>
<path d="M68.8375 5.7431H71.7223V8.86098C72.5381 6.52985 74.403 5.39343 76.705 5.39343C79.7938 5.39343 82.3872 7.49144 82.3872 11.8914V22.061H79.4732V12.1246C79.4732 9.61859 78.2785 7.92853 75.7434 7.92853C73.0335 7.92853 71.7514 9.88084 71.7514 12.5616V22.061H68.8375V5.7431Z" fill="white"/>
<path d="M92.2405 22.4106C87.8696 22.4106 85.5968 19.759 85.5968 15.3881V5.7431H88.5107V15.5921C88.5107 18.0106 89.7345 19.759 92.2696 19.759C94.863 19.759 95.9994 17.9815 95.9994 15.5338V5.7431H98.9133V15.3881C98.9133 19.759 96.6113 22.4106 92.2405 22.4106Z" fill="white"/>
<path d="M108.773 22.4106C104.403 22.4106 102.13 19.759 102.13 15.3881V5.7431H105.044V15.5921C105.044 18.0106 106.268 19.759 108.803 19.759C111.396 19.759 112.532 17.9815 112.532 15.5338V5.7431H115.446V15.3881C115.446 19.759 113.144 22.4106 108.773 22.4106Z" fill="white"/>
<path d="M118.721 5.7431H121.606V8.83184C122.393 6.52985 124.228 5.39343 126.443 5.39343C128.716 5.39343 130.726 6.61727 131.571 9.12323C132.387 6.61727 134.427 5.39343 136.729 5.39343C139.759 5.39343 142.295 7.49144 142.295 11.8914V22.061H139.381V12.1246C139.381 9.61859 138.244 7.92853 135.826 7.92853C133.203 7.92853 131.979 9.88084 131.979 12.5616V22.061H129.065V12.1246C129.065 9.61859 127.929 7.92853 125.481 7.92853C122.859 7.92853 121.635 9.88084 121.635 12.5616V22.061H118.721V5.7431Z" fill="white"/>
<path d="M145.206 18.7974H148.644V22.061H145.206V18.7974Z" fill="white"/>
<path d="M150.72 18.0106C150.72 15.7961 152.148 14.1351 154.741 13.3193L160.219 11.5418C160.074 9.03581 158.879 8.04508 156.519 8.04508C155.149 8.04508 153.663 8.36561 151.536 9.1815V6.38415C153.372 5.80137 155.178 5.39343 156.868 5.39343C161.21 5.39343 163.133 8.10336 163.133 12.008V22.061H160.277V19.6716C159.374 21.3616 157.626 22.4106 155.47 22.4106C152.497 22.4106 150.72 20.4875 150.72 18.0106ZM153.663 17.7775C153.663 19.0888 154.712 20.0795 156.315 20.0795C158.296 20.0795 160.219 18.5934 160.219 16.3789V13.9312L155.877 15.3298C154.362 15.7961 153.663 16.6702 153.663 17.7775Z" fill="white"/>
<path d="M166.385 5.7431H169.299V22.061H166.385V5.7431ZM166.356 3.0623V0.410645H169.386V3.0623H166.356Z" fill="white"/>
</svg>
