<svg width="43" height="50" viewBox="0 0 43 50" fill="none" xmlns="http://www.w3.org/2000/svg">
<path d="M13.8204 12.1613C15.1002 12.1613 16.1377 11.1239 16.1377 9.8441C16.1377 8.56432 15.1002 7.52686 13.8204 7.52686C12.5407 7.52686 11.5032 8.56432 11.5032 9.8441C11.5032 11.1239 12.5407 12.1613 13.8204 12.1613Z" fill="#FFAE1A"/>
<path opacity="0.35" d="M34.6432 35.9014C34.6548 35.8922 34.664 35.8829 34.6756 35.8736L18.4642 19.6622C21.2518 17.7922 23.0894 13.4543 23.0894 9.84405C23.0894 4.18303 18.5777 0.693259 12.9515 0.577397C8.0482 0.475439 3.77521 3.56896 2.57256 8.32394C1.84495 11.2112 2.3362 13.9317 3.61995 16.1446C4.70674 18.017 4.49355 20.3759 3.36738 22.2251C-4.84956 35.716 8.35176 50.7758 25.9929 41.5092L31.5311 47.0474C34.4508 49.9671 39.1827 49.9671 42.1024 47.0474C43.122 46.0278 43.122 44.3779 42.1024 43.3583L34.6432 35.9014Z" fill="#FFAE1A"/>
<path d="M18.4433 5.01011L18.3576 19.7037C18.3576 19.7037 22.2598 16.6936 24.5145 19.6435C25.2352 20.5866 26.6371 20.6608 27.3809 19.7339C30.7525 15.5304 32.1382 6.01811 20.6447 3.29999C19.5348 3.04046 18.4503 3.87003 18.4433 5.01011Z" fill="#FFAE1A"/>
<path d="M19.6136 49.2371H10.3446C8.42593 49.2371 6.86874 47.6799 6.86874 45.7613C6.86874 43.8426 8.42593 42.2854 10.3446 42.2854H19.6136C21.5322 42.2854 23.0894 43.8426 23.0894 45.7613C23.0894 47.6799 21.5322 49.2371 19.6136 49.2371Z" fill="#FFAE1A"/>
</svg>
