<svg width="42" height="49" viewBox="0 0 42 49" fill="none" xmlns="http://www.w3.org/2000/svg">
<path fill-rule="evenodd" clip-rule="evenodd" d="M6.65348 3.82775V0.906006H0V27.8278C0 39.469 9.40203 48.906 21 48.906C32.598 48.906 42 39.469 42 27.8278V0.906006H35.3465V3.82775H24.1188V0.906006H17.4654V3.82775H6.65348ZM17.4654 41.7874C11.3098 40.222 6.74032 34.6625 6.6547 28.0177C7.3638 28.1902 8.06018 28.4178 8.73735 28.6993C10.4527 29.4125 12.0114 30.4578 13.3242 31.7756C14.6372 33.0934 15.6786 34.6578 16.3891 36.3796C17.0968 38.0942 17.4624 39.9316 17.4654 41.7874ZM18.0289 27.0534C19.0709 28.0991 19.9965 29.2505 20.7921 30.4868C21.5877 29.2505 22.5133 28.0991 23.5552 27.0534C24.597 26.0076 25.7442 25.0786 26.9759 24.28C25.7442 23.4814 24.597 22.5522 23.5552 21.5065C22.5133 20.4607 21.5877 19.3094 20.7921 18.0731C19.9965 19.3094 19.0709 20.4607 18.0289 21.5065C16.9872 22.5522 15.84 23.4814 14.6083 24.28C15.84 25.0786 16.9872 26.0076 18.0289 27.0534ZM35.3463 27.9232C35.3021 34.7587 30.5128 40.4639 24.1188 41.8865V41.8104C24.1188 39.9467 24.4845 38.1013 25.1951 36.3796C25.9056 34.6578 26.947 33.0934 28.26 31.7756C29.5728 30.4578 31.1314 29.4125 32.8469 28.6993C33.6563 28.3628 34.493 28.1033 35.3463 27.9232ZM16.961 10.506C16.8057 11.0743 16.6147 11.6335 16.3891 12.1803C15.6786 13.902 14.6372 15.4664 13.3242 16.7843C12.0114 18.102 10.4527 19.1473 8.73735 19.8606C8.05978 20.1422 7.363 20.37 6.65348 20.5423V10.506H16.961ZM35.3465 20.6368V10.506H24.6232C24.7786 11.0743 24.9695 11.6335 25.1951 12.1803C25.9056 13.902 26.947 15.4664 28.26 16.7843C29.5728 18.102 31.1314 19.1473 32.8469 19.8606C33.6563 20.1971 34.4933 20.4565 35.3465 20.6368Z" fill="#18BFFF"/>
</svg>
