<svg width="80" height="49" viewBox="0 0 80 49" fill="none" xmlns="http://www.w3.org/2000/svg">
<path d="M54.1067 5.3736C55.0667 4.30989 56.1333 3.43233 57.2267 2.74091C59.1466 1.54423 61.1734 0.906006 63.2533 0.906006V18.2711C61.7333 13.0057 58.4534 8.48495 54.1067 5.3736ZM80 48.906H18.32C8.18666 48.906 0 40.7154 0 30.6367C0 20.9835 7.52 13.0589 17.0401 12.3941V0.906006C19.1733 0.906006 21.28 1.51764 23.2533 2.74091C24.3467 3.40573 25.4133 4.28329 26.3733 5.29381C30.2933 2.55476 35.04 0.959191 40.1866 0.959191C40.1866 12.0483 36.1866 24.9459 23.1733 24.9725H40.0533C39.5733 22.8185 37.6 21.2229 35.2533 21.1963H45.0666C42.72 21.1963 40.7467 22.8185 40.2667 24.9991H56C59.1466 24.9991 62.2666 25.6108 65.2 26.834C68.1066 28.0307 70.7733 29.8124 72.9866 32.0196C75.2266 34.2534 76.9866 36.8861 78.1867 39.7847C79.3867 42.6568 80 45.7681 80 48.906ZM27.4134 12.7133C27.8134 13.7503 28.88 14.9204 30.3733 15.7713C31.8667 16.6224 33.4133 16.9681 34.5067 16.8085C34.1067 15.7713 33.04 14.6013 31.5467 13.7503C30.0534 12.8994 28.5066 12.5537 27.4134 12.7133ZM49.8666 15.7713C48.3733 16.6224 46.8266 16.9681 45.7333 16.8085C46.1333 15.7713 47.2 14.6013 48.6934 13.7503C50.1867 12.8994 51.7333 12.5537 52.8267 12.7133C52.4533 13.7503 51.36 14.9204 49.8666 15.7713Z" fill="#FF4F00"/>
</svg>
