<svg width="197" height="17" viewBox="0 0 197 17" fill="none" xmlns="http://www.w3.org/2000/svg">
<path d="M20.0672 3.51836H13.6672V16.3184H10.4672V3.51836H4.06719V0.318359H20.0672V3.51836ZM0.867188 16.3184V6.71836C0.867188 4.95836 2.30719 3.51836 4.06719 3.51836V16.3184H0.867188ZM20.0672 16.3184V3.51836C21.8272 3.51836 23.2672 4.95836 23.2672 6.71836V16.3184H20.0672Z" fill="white"/>
<path d="M48.8797 3.51836H32.8797V0.318359H48.8797V3.51836ZM29.6797 9.91836V6.71836C29.6797 4.95836 31.1197 3.51836 32.8797 3.51836V13.1184C31.1197 13.1184 29.6797 11.6784 29.6797 9.91836ZM32.8797 16.3184V13.1184H48.8797V16.3184H32.8797ZM48.8797 13.1184V3.51836C50.6397 3.51836 52.0797 4.95836 52.0797 6.71836V9.91836C52.0797 11.6784 50.6397 13.1184 48.8797 13.1184Z" fill="white"/>
<path d="M74.4922 0.318359C76.2522 0.318359 77.6922 1.75836 77.6922 3.51836H61.6922V6.71836H77.6922V9.91836H61.6922V16.3184H58.4922V0.318359H74.4922ZM77.6922 16.3184V9.91836C79.4522 9.91836 80.8922 11.3584 80.8922 13.1184V16.3184H77.6922ZM77.6922 6.71836V3.51836H80.8922V6.71836H77.6922Z" fill="white"/>
<path d="M90.5047 3.51836V6.71836H106.505V3.51836C108.265 3.51836 109.705 4.95836 109.705 6.71836V16.3184H106.505V9.91836H90.5047V16.3184H87.3047V6.71836C87.3047 4.95836 88.7447 3.51836 90.5047 3.51836ZM90.5047 3.51836V0.318359H106.505V3.51836H90.5047Z" fill="white"/>
<path d="M135.317 3.51836H119.317V0.318359H135.317V3.51836ZM116.117 16.3184V6.71836C116.117 4.95836 117.557 3.51836 119.317 3.51836V16.3184H116.117ZM135.317 16.3184V3.51836C137.077 3.51836 138.517 4.95836 138.517 6.71836V16.3184H135.317Z" fill="white"/>
<path d="M167.33 3.51836H148.13V0.318359H167.33V3.51836ZM144.93 9.91836V6.71836C144.93 4.95836 146.37 3.51836 148.13 3.51836V13.1184C146.37 13.1184 144.93 11.6784 144.93 9.91836ZM148.13 16.3184V13.1184H167.33V16.3184H148.13Z" fill="white"/>
<path d="M196.142 3.51836H176.942V0.318359H196.142V3.51836ZM173.742 9.91836V6.71836C173.742 4.95836 175.182 3.51836 176.942 3.51836V6.71836H196.142V9.91836H176.942V13.1184C175.182 13.1184 173.742 11.6784 173.742 9.91836ZM176.942 16.3184V13.1184H196.142V16.3184H176.942Z" fill="white"/>
</svg>
