<svg width="19" height="18" viewBox="0 0 19 18" fill="none" xmlns="http://www.w3.org/2000/svg">
<g clip-path="url(#clip0_482_3364)">
<path d="M9.86719 0.222778C4.89469 0.222778 0.867188 4.25253 0.867188 9.22278C0.867188 13.2 3.44569 16.5728 7.02094 17.7615C7.47094 17.8463 7.63594 17.568 7.63594 17.3288C7.63594 17.115 7.62844 16.5488 7.62469 15.7988C5.12119 16.3418 4.59319 14.5913 4.59319 14.5913C4.18369 13.5525 3.59194 13.275 3.59194 13.275C2.77669 12.717 3.65494 12.7283 3.65494 12.7283C4.55869 12.7913 5.03344 13.6553 5.03344 13.6553C5.83594 15.0315 7.14019 14.634 7.65469 14.4038C7.73569 13.8218 7.96744 13.425 8.22469 13.2C6.22594 12.975 4.12519 12.201 4.12519 8.75253C4.12519 7.77003 4.47394 6.96753 5.05144 6.33753C4.95019 6.11028 4.64644 5.19528 5.13019 3.95553C5.13019 3.95553 5.88394 3.71403 7.60519 4.87803C8.32519 4.67778 9.09019 4.57878 9.85519 4.57428C10.6202 4.57878 11.3852 4.67778 12.1052 4.87803C13.8152 3.71403 14.5689 3.95553 14.5689 3.95553C15.0527 5.19528 14.7489 6.11028 14.6589 6.33753C15.2327 6.96753 15.5814 7.77003 15.5814 8.75253C15.5814 12.21 13.4777 12.9713 11.4752 13.1925C11.7902 13.4625 12.0827 14.0145 12.0827 14.8575C12.0827 16.062 12.0714 17.0295 12.0714 17.322C12.0714 17.5583 12.2289 17.8395 12.6902 17.7495C16.2909 16.569 18.8672 13.194 18.8672 9.22278C18.8672 4.25253 14.8374 0.222778 9.86719 0.222778Z" fill="white"/>
</g>
<defs>
<clipPath id="clip0_482_3364">
<rect width="18" height="18" fill="white" transform="translate(0.867188)"/>
</clipPath>
</defs>
</svg>
