<svg width="84" height="49" viewBox="0 0 84 49" fill="none" xmlns="http://www.w3.org/2000/svg">
<path d="M44.7061 2.84503C45.8163 1.69007 47.3241 1.04121 48.8942 1.04121C55.9581 1.04121 62.6151 1.04121 69.1708 1.04123C82.3562 1.04126 88.9588 17.6255 79.6354 27.3247L59.3266 48.452C58.3944 49.4219 56.8002 48.7349 56.8002 47.3632V28.7551L59.1471 26.3134C61.0118 24.3736 59.6912 21.0567 57.0541 21.0567H27.2L44.7061 2.84503Z" fill="#5E6AD2"/>
<path d="M39.2938 46.967C38.1837 48.122 36.6759 48.7708 35.1058 48.7708C28.0419 48.7708 21.3849 48.7708 14.8292 48.7708C1.64379 48.7707 -4.95883 32.1866 4.36464 22.4872L24.6734 1.36005C25.6057 0.390117 27.1999 1.07706 27.1999 2.44875L27.2 21.0567L24.8529 23.4985C22.9883 25.4384 24.3089 28.7552 26.946 28.7552L56.8002 28.7551L39.2938 46.967Z" fill="#5E6AD2"/>
</svg>
